<svg width="18" height="18" viewBox="0 0 24 24" fill="none" xmlns="http://www.w3.org/2000/svg">
    <path fill-rule="evenodd" clip-rule="evenodd"
          d="M19 11.5C19 15.0899 16.0899 18 12.5 18V16.375C15.1924 16.375 17.375 14.1924 17.375 11.5C17.375 8.80761 15.1924 6.625 12.5 6.625C9.80761 6.625 7.625 8.80761 7.625 11.5C7.625 11.9785 7.69374 12.4468 7.82717 12.8946L9.79823 11L11 12.1552L7 16L3 12.1552L4.20177 11L6.14417 12.8671C6.04875 12.4215 6 11.9639 6 11.5C6 7.91015 8.91015 5 12.5 5C16.0899 5 19 7.91015 19 11.5ZM6.96733 13.6583L7 13.6897L7.07736 13.6153L6.96733 13.6583Z"
          fill="#0CC177"/>
</svg>
