<?xml version="1.0" encoding="UTF-8" standalone="no"?>
<svg
   xmlns:dc="http://purl.org/dc/elements/1.1/"
   xmlns:cc="http://creativecommons.org/ns#"
   xmlns:rdf="http://www.w3.org/1999/02/22-rdf-syntax-ns#"
   xmlns:svg="http://www.w3.org/2000/svg"
   xmlns="http://www.w3.org/2000/svg"
   xmlns:sodipodi="http://sodipodi.sourceforge.net/DTD/sodipodi-0.dtd"
   xmlns:inkscape="http://www.inkscape.org/namespaces/inkscape"
   width="24"
   height="24"
   viewBox="0 0 24 24"
   fill="none"
   version="1.1"
   id="svg196"
   sodipodi:docname="Database2.svg"
   inkscape:version="1.0.1 (c497b03c, 2020-09-10)">
  <metadata
     id="metadata202">
    <rdf:RDF>
      <cc:Work
         rdf:about="">
        <dc:format>image/svg+xml</dc:format>
        <dc:type
           rdf:resource="http://purl.org/dc/dcmitype/StillImage" />
        <dc:title></dc:title>
      </cc:Work>
    </rdf:RDF>
  </metadata>
  <defs
     id="defs200" />
  <sodipodi:namedview
     pagecolor="#ffffff"
     bordercolor="#666666"
     borderopacity="1"
     objecttolerance="10"
     gridtolerance="10"
     guidetolerance="10"
     inkscape:pageopacity="0"
     inkscape:pageshadow="2"
     inkscape:window-width="1172"
     inkscape:window-height="984"
     id="namedview198"
     showgrid="false"
     inkscape:zoom="30.625"
     inkscape:cx="12.065306"
     inkscape:cy="12.783673"
     inkscape:window-x="0"
     inkscape:window-y="0"
     inkscape:window-maximized="0"
     inkscape:current-layer="svg196" />
  <path
     style="color:#000000;font-style:normal;font-variant:normal;font-weight:normal;font-stretch:normal;font-size:medium;line-height:normal;font-family:sans-serif;font-variant-ligatures:normal;font-variant-position:normal;font-variant-caps:normal;font-variant-numeric:normal;font-variant-alternates:normal;font-variant-east-asian:normal;font-feature-settings:normal;font-variation-settings:normal;text-indent:0;text-align:start;text-decoration:none;text-decoration-line:none;text-decoration-style:solid;text-decoration-color:#000000;letter-spacing:normal;word-spacing:normal;text-transform:none;writing-mode:lr-tb;direction:ltr;text-orientation:mixed;dominant-baseline:auto;baseline-shift:baseline;text-anchor:start;white-space:normal;shape-padding:0;shape-margin:0;inline-size:0;clip-rule:nonzero;display:inline;overflow:visible;visibility:visible;isolation:auto;mix-blend-mode:normal;color-interpolation:sRGB;color-interpolation-filters:linearRGB;solid-color:#000000;solid-opacity:1;vector-effect:none;fill:#000000;fill-opacity:1;fill-rule:nonzero;stroke:none;stroke-width:2;stroke-linecap:round;stroke-linejoin:round;stroke-miterlimit:4;stroke-dasharray:none;stroke-dashoffset:0;stroke-opacity:1;color-rendering:auto;image-rendering:auto;shape-rendering:auto;text-rendering:auto;enable-background:accumulate;stop-color:#000000;stop-opacity:1;opacity:1"
     d="M 12 1 C 9.4246463 1 7.0937565 1.3385391 5.3203125 1.9296875 C 4.4335905 2.2252617 3.682419 2.5783345 3.0878906 3.046875 C 2.4933622 3.5154155 2 4.1804561 2 5 C 2 5.8195439 2.4933622 6.4845845 3.0878906 6.953125 C 3.682419 7.4216655 4.4335905 7.7747383 5.3203125 8.0703125 C 7.0937565 8.6614609 9.4246463 9 12 9 C 14.575373 9 16.906247 8.6614615 18.679688 8.0703125 C 19.566408 7.774738 20.317584 7.4216665 20.912109 6.953125 C 21.506635 6.4845835 22 5.8195399 22 5 C 22 4.1804601 21.506635 3.5154165 20.912109 3.046875 C 20.317584 2.5783335 19.566408 2.225262 18.679688 1.9296875 C 16.906247 1.3385385 14.575373 1 12 1 z M 12 3 C 14.395227 3 16.562965 3.3334865 18.046875 3.828125 C 18.78883 4.0754443 19.35751 4.3678993 19.673828 4.6171875 C 19.990146 4.8664757 20 4.9911149 20 5 C 20 5.0088851 19.990146 5.1335243 19.673828 5.3828125 C 19.35751 5.6321007 18.78883 5.9245557 18.046875 6.171875 C 16.562965 6.6665135 14.395227 7 12 7 C 9.6047937 7 7.437041 6.6665141 5.953125 6.171875 C 5.211167 5.9245555 4.6424935 5.6321017 4.3261719 5.3828125 C 4.0098503 5.1335233 4 5.0088811 4 5 C 4 4.9911189 4.0098503 4.8664767 4.3261719 4.6171875 C 4.6424935 4.3678983 5.211167 4.0754445 5.953125 3.828125 C 7.437041 3.3334859 9.6047937 3 12 3 z "
     id="path206" />
  <path
     style="color:#000000;font-style:normal;font-variant:normal;font-weight:normal;font-stretch:normal;font-size:medium;line-height:normal;font-family:sans-serif;font-variant-ligatures:normal;font-variant-position:normal;font-variant-caps:normal;font-variant-numeric:normal;font-variant-alternates:normal;font-variant-east-asian:normal;font-feature-settings:normal;font-variation-settings:normal;text-indent:0;text-align:start;text-decoration:none;text-decoration-line:none;text-decoration-style:solid;text-decoration-color:#000000;letter-spacing:normal;word-spacing:normal;text-transform:none;writing-mode:lr-tb;direction:ltr;text-orientation:mixed;dominant-baseline:auto;baseline-shift:baseline;text-anchor:start;white-space:normal;shape-padding:0;shape-margin:0;inline-size:0;clip-rule:nonzero;display:inline;overflow:visible;visibility:visible;isolation:auto;mix-blend-mode:normal;color-interpolation:sRGB;color-interpolation-filters:linearRGB;solid-color:#000000;solid-opacity:1;vector-effect:none;fill:#000000;fill-opacity:1;fill-rule:nonzero;stroke:none;stroke-width:2;stroke-linecap:round;stroke-linejoin:round;stroke-miterlimit:4;stroke-dasharray:none;stroke-dashoffset:0;stroke-opacity:1;color-rendering:auto;image-rendering:auto;shape-rendering:auto;text-rendering:auto;enable-background:accumulate;stop-color:#000000;stop-opacity:1;opacity:1"
     d="M 3 11 A 1 1 0 0 0 2 12 C 2 12.816606 2.4894367 13.483545 3.0820312 13.953125 C 3.6746258 14.422705 4.4232416 14.774741 5.3085938 15.070312 C 7.0792981 15.661455 9.4106667 16 12 16 C 14.589333 16 16.920702 15.661455 18.691406 15.070312 C 19.576758 14.774741 20.325374 14.422705 20.917969 13.953125 C 21.510563 13.483545 22 12.816606 22 12 A 1 1 0 0 0 21 11 A 1 1 0 0 0 20 12 C 20 12.013394 19.989437 12.136221 19.675781 12.384766 C 19.362126 12.633311 18.798242 12.9269 18.058594 13.173828 C 16.579298 13.667685 14.410667 14 12 14 C 9.5893333 14 7.4207019 13.667685 5.9414062 13.173828 C 5.2017584 12.9269 4.6378742 12.633311 4.3242188 12.384766 C 4.0105633 12.136221 4 12.013394 4 12 A 1 1 0 0 0 3 11 z "
     id="path210" />
  <path
     style="color:#000000;font-style:normal;font-variant:normal;font-weight:normal;font-stretch:normal;font-size:medium;line-height:normal;font-family:sans-serif;font-variant-ligatures:normal;font-variant-position:normal;font-variant-caps:normal;font-variant-numeric:normal;font-variant-alternates:normal;font-variant-east-asian:normal;font-feature-settings:normal;font-variation-settings:normal;text-indent:0;text-align:start;text-decoration:none;text-decoration-line:none;text-decoration-style:solid;text-decoration-color:#000000;letter-spacing:normal;word-spacing:normal;text-transform:none;writing-mode:lr-tb;direction:ltr;text-orientation:mixed;dominant-baseline:auto;baseline-shift:baseline;text-anchor:start;white-space:normal;shape-padding:0;shape-margin:0;inline-size:0;clip-rule:nonzero;display:inline;overflow:visible;visibility:visible;isolation:auto;mix-blend-mode:normal;color-interpolation:sRGB;color-interpolation-filters:linearRGB;solid-color:#000000;solid-opacity:1;vector-effect:none;fill:#000000;fill-opacity:1;fill-rule:nonzero;stroke:none;stroke-width:2;stroke-linecap:round;stroke-linejoin:round;stroke-miterlimit:4;stroke-dasharray:none;stroke-dashoffset:0;stroke-opacity:1;color-rendering:auto;image-rendering:auto;shape-rendering:auto;text-rendering:auto;enable-background:accumulate;stop-color:#000000;stop-opacity:1;opacity:1"
     d="M 3 4 A 1 1 0 0 0 2 5 L 2 19 C 2 19.816606 2.4894367 20.483545 3.0820312 20.953125 C 3.6746258 21.422705 4.4232416 21.774741 5.3085938 22.070312 C 7.0792981 22.661455 9.4106667 23 12 23 C 14.589333 23 16.920702 22.661455 18.691406 22.070312 C 19.576758 21.774741 20.325374 21.422705 20.917969 20.953125 C 21.510563 20.483545 22 19.816606 22 19 L 22 5 A 1 1 0 0 0 21 4 A 1 1 0 0 0 20 5 L 20 19 C 20 19.013394 19.989437 19.136221 19.675781 19.384766 C 19.362126 19.633311 18.798242 19.9269 18.058594 20.173828 C 16.579298 20.667685 14.410667 21 12 21 C 9.5893333 21 7.4207019 20.667685 5.9414062 20.173828 C 5.2017584 19.9269 4.6378742 19.633311 4.3242188 19.384766 C 4.0105633 19.136221 4 19.013394 4 19 L 4 5 A 1 1 0 0 0 3 4 z "
     id="path214" />
</svg>
