<svg width="24" height="24" viewBox="0 0 24 24" fill="none" xmlns="http://www.w3.org/2000/svg">
<path d="M17.0789 7.02652C17.0789 9.74434 14.8757 11.9476 12.1579 11.9476C9.44005 11.9476 7.23682 9.74434 7.23682 7.02652C7.23682 4.3087 9.44005 2.10547 12.1579 2.10547C14.8757 2.10547 17.0789 4.3087 17.0789 7.02652Z" fill="#211E1E"/>
<path d="M13.0526 20.8946H5C4.99972 19.802 5.24956 18.7239 5.73037 17.7428C6.21118 16.7617 6.91021 15.9037 7.77388 15.2345C8.63755 14.5653 9.64295 14.1027 10.713 13.8822C11.4846 13.7232 12.2751 13.693 13.0526 13.791V20.8946Z" fill="#211E1E"/>
<path d="M17.5263 16.421V13.7368H19.3158V16.421H22V18.2105H19.3158V20.8947H17.5263V18.2105H14.8421V16.421H17.5263Z" fill="#211E1E"/>
<path d="M17.5263 16.421V13.7368H19.3158V16.421H22V18.2105H19.3158V20.8947H17.5263V18.2105H14.8421V16.421H17.5263Z" fill="#0CC177"/>
</svg>
