<svg width="24" height="24" viewBox="0 0 24 24" fill="none" xmlns="http://www.w3.org/2000/svg">
<path fill-rule="evenodd" clip-rule="evenodd" d="M21.043 15.4571L19.629 14.0431L17.129 16.7151L15.983 15.5691L18.044 13.5081L16.63 12.0941L14.569 14.1551L11.21 10.7961L11.515 10.1591C12.426 8.25006 12.035 5.96406 10.543 4.47206C8.59099 2.52006 5.41899 2.52006 3.46999 4.47006C1.52099 6.41906 1.52099 9.59206 3.46999 11.5411C4.96199 13.0331 7.24799 13.4241 9.15699 12.5131L9.79399 12.2081L18.543 20.9571L19.957 19.5431L18.543 18.1291L21.043 15.4571ZM9.12699 10.1271C7.95699 11.2971 6.05399 11.2971 4.88399 10.1271C3.71399 8.95706 3.71399 7.05406 4.88399 5.88406C6.05399 4.71406 7.95699 4.71406 9.12699 5.88406C10.296 7.05406 10.296 8.95706 9.12699 10.1271Z" fill="#211E1E"/>
</svg>
