<svg width="24" height="24" viewBox="0 0 24 24" fill="none" xmlns="http://www.w3.org/2000/svg">
<path d="M12.9091 6.59091C12.9091 5.77827 13.0868 5.00713 13.4055 4.31424L12 2.95459L10.2013 4.69287L7.72621 4.34308L7.29297 6.80757L5.08416 7.97945L6.18146 10.2273L5.08416 12.4752L7.29297 13.6471L7.72621 16.1116L10.2031 15.7618L12 17.5L13.7987 15.7618L16.2756 16.1116L16.707 13.6471L18.9176 12.4752L18.7024 12.0351C18.5904 12.042 18.4774 12.0455 18.3636 12.0455C15.3512 12.0455 12.9091 9.60337 12.9091 6.59091Z" fill="#211E1E"/>
<path d="M5.62038 14.7888L2 18.4091L4.72727 19.3182L5.63636 22.0455L9.80895 17.8729L9.58523 17.6598L8.47017 17.8161C8.36108 17.8316 8.25429 17.8392 8.14702 17.8392C7.02338 17.8392 6.06615 17.035 5.87251 15.9287L5.67898 14.8207L5.62038 14.7888Z" fill="#211E1E"/>
<path d="M18.3796 14.7888L18.321 14.8207L18.1275 15.9287C17.9329 17.0359 16.9766 17.8392 15.853 17.8392C15.7457 17.8392 15.6389 17.8316 15.5298 17.8161L14.4148 17.6598L14.1911 17.8747L18.3636 22.0455L19.2727 19.3182L22 18.4091L18.3796 14.7888Z" fill="#211E1E"/>
<path d="M17.078 6.59059L15.1495 4.66211L16.4352 3.37646L18.3637 5.30494L20.2921 3.37646L21.5778 4.66211L19.6493 6.59059L21.5778 8.51906L20.2921 9.80471L18.3637 7.87624L16.4352 9.80471L15.1495 8.51906L17.078 6.59059Z" fill="#211E1E"/>
<path d="M17.078 6.59059L15.1495 4.66211L16.4352 3.37646L18.3637 5.30494L20.2921 3.37646L21.5778 4.66211L19.6493 6.59059L21.5778 8.51906L20.2921 9.80471L18.3637 7.87624L16.4352 9.80471L15.1495 8.51906L17.078 6.59059Z" fill="#EC4040"/>
</svg>
