<svg width="24" height="24" viewBox="0 0 24 24" fill="none" xmlns="http://www.w3.org/2000/svg">
<path d="M17.1929 7.06417C17.1929 9.80764 14.9689 12.0317 12.2254 12.0317C9.48196 12.0317 7.25794 9.80764 7.25794 7.06417C7.25794 4.3207 9.48196 2.09668 12.2254 2.09668C14.9689 2.09668 17.1929 4.3207 17.1929 7.06417Z" fill="#211E1E"/>
<path d="M13.1286 21.0637H5C4.99972 19.9608 5.25192 18.8725 5.73726 17.8822C6.22261 16.8918 6.92823 16.0257 7.80005 15.3502C8.67188 14.6747 9.68676 14.2078 10.7669 13.9852C11.5458 13.8246 12.3437 13.7942 13.1286 13.8931V21.0637Z" fill="#211E1E"/>
<path d="M17.2704 17.4507L15.3545 15.5347L16.6318 14.2575L18.5477 16.1734L20.4636 14.2575L21.7409 15.5347L19.825 17.4507L21.7409 19.3666L20.4636 20.6439L18.5477 18.728L16.6318 20.6439L15.3545 19.3666L17.2704 17.4507Z" fill="#211E1E"/>
<path d="M17.2704 17.4505L15.3545 15.5346L16.6318 14.2573L18.5477 16.1733L20.4636 14.2573L21.7409 15.5346L19.825 17.4505L21.7409 19.3665L20.4636 20.6438L18.5477 18.7278L16.6318 20.6438L15.3545 19.3665L17.2704 17.4505Z" fill="#EC4040"/>
</svg>
