<svg width="336" height="125" viewBox="0 0 336 125" fill="none" xmlns="http://www.w3.org/2000/svg">
<path d="M25.0528 72.4072H57.7651V28.4639L25.0528 72.4072ZM0 72.4072C0 69.744 0.319144 67.3471 0.957432 65.2165C1.59572 63.0859 2.97868 60.6357 5.1063 57.866L42.2866 7.53092C43.0312 6.46563 44.361 5.40034 46.2759 4.33505C48.2971 3.16322 50.7971 2.57731 53.7758 2.57731H71.8074C75.6371 2.57731 78.8818 3.96219 81.5413 6.73195C84.3072 9.39518 85.6902 12.6443 85.6902 16.4794V72.4072H88.8816C92.1794 72.4072 94.9985 73.579 97.3389 75.9227C99.6793 78.2663 100.849 81.0893 100.849 84.3917C100.849 87.8007 99.6793 90.677 97.3389 93.0206C94.9985 95.2577 92.1794 96.3763 88.8816 96.3763H85.6902V108.361C85.6902 112.302 84.3072 115.658 81.5413 118.428C78.8818 121.091 75.6371 122.423 71.8074 122.423C67.8713 122.423 64.5203 121.091 61.7544 118.428C59.0948 115.658 57.7651 112.302 57.7651 108.361V96.3763H13.8828C10.053 96.3763 6.75521 95.0447 3.9893 92.3814C1.32977 89.6117 0 86.3093 0 82.4742V72.4072Z" fill="url(#paint0_linear_7810_830464)"/>
<path d="M167.902 124.5C159.392 124.5 151.36 122.902 143.807 119.706C136.36 116.404 129.818 111.983 124.179 106.443C118.648 100.797 114.233 94.1924 110.935 86.6289C107.743 79.0653 106.148 71.0223 106.148 62.5C106.148 53.9777 107.743 45.9347 110.935 38.3711C114.233 30.8076 118.648 24.256 124.179 18.7165C129.818 13.0704 136.36 8.64948 143.807 5.4536C151.36 2.1512 159.392 0.5 167.902 0.5C176.413 0.5 184.444 2.1512 191.997 5.4536C199.551 8.64948 206.093 13.0704 211.625 18.7165C217.263 24.256 221.678 30.8076 224.869 38.3711C228.167 45.9347 229.816 53.9777 229.816 62.5C229.816 71.0223 228.167 79.0653 224.869 86.6289C221.678 94.1924 217.263 100.797 211.625 106.443C206.093 111.983 199.551 116.404 191.997 119.706C184.444 122.902 176.413 124.5 167.902 124.5ZM134.073 62.5C134.073 67.1873 134.924 71.6082 136.626 75.7629C138.435 79.811 140.881 83.3797 143.966 86.4691C147.051 89.5584 150.615 92.0086 154.658 93.8196C158.807 95.5241 163.221 96.3763 167.902 96.3763C172.583 96.3763 176.998 95.5241 181.147 93.8196C185.296 92.0086 188.912 89.5584 191.997 86.4691C195.083 83.3797 197.476 79.811 199.178 75.7629C200.987 71.6082 201.891 67.1873 201.891 62.5C201.891 57.8127 200.987 53.445 199.178 49.3969C197.476 45.2423 195.083 41.6203 191.997 38.5309C188.912 35.4416 185.296 32.9914 181.147 31.1804C176.998 29.3694 172.583 28.4639 167.902 28.4639C163.221 28.4639 158.807 29.3694 154.658 31.1804C150.615 32.9914 147.051 35.4416 143.966 38.5309C140.881 41.6203 138.435 45.2423 136.626 49.3969C134.924 53.445 134.073 57.8127 134.073 62.5Z" fill="url(#paint1_linear_7810_830464)"/>
<path d="M260.203 72.4072H292.916V28.4639L260.203 72.4072ZM235.151 72.4072C235.151 69.744 235.47 67.3471 236.108 65.2165C236.746 63.0859 238.129 60.6357 240.257 57.866L277.437 7.53092C278.182 6.46563 279.512 5.40034 281.426 4.33505C283.448 3.16322 285.948 2.57731 288.926 2.57731H306.958C310.788 2.57731 314.032 3.96219 316.692 6.73195C319.458 9.39518 320.841 12.6443 320.841 16.4794V72.4072H324.032C327.33 72.4072 330.149 73.579 332.489 75.9227C334.83 78.2663 336 81.0893 336 84.3917C336 87.8007 334.83 90.677 332.489 93.0206C330.149 95.2577 327.33 96.3763 324.032 96.3763H320.841V108.361C320.841 112.302 319.458 115.658 316.692 118.428C314.032 121.091 310.788 122.423 306.958 122.423C303.022 122.423 299.671 121.091 296.905 118.428C294.245 115.658 292.916 112.302 292.916 108.361V96.3763H249.033C245.204 96.3763 241.906 95.0447 239.14 92.3814C236.48 89.6117 235.151 86.3093 235.151 82.4742V72.4072Z" fill="url(#paint2_linear_7810_830464)"/>
<defs>
<linearGradient id="paint0_linear_7810_830464" x1="-2.52632" y1="122.423" x2="338.746" y2="-46.9804" gradientUnits="userSpaceOnUse">
<stop stop-color="#F9E100"/>
<stop offset="0.45" stop-color="#FF282C"/>
<stop offset="0.66" stop-color="#D95992"/>
<stop offset="0.9" stop-color="#55ACEE"/>
</linearGradient>
<linearGradient id="paint1_linear_7810_830464" x1="-2.52632" y1="122.423" x2="338.746" y2="-46.9804" gradientUnits="userSpaceOnUse">
<stop stop-color="#F9E100"/>
<stop offset="0.45" stop-color="#FF282C"/>
<stop offset="0.66" stop-color="#D95992"/>
<stop offset="0.9" stop-color="#55ACEE"/>
</linearGradient>
<linearGradient id="paint2_linear_7810_830464" x1="-2.52632" y1="122.423" x2="338.746" y2="-46.9804" gradientUnits="userSpaceOnUse">
<stop stop-color="#F9E100"/>
<stop offset="0.45" stop-color="#FF282C"/>
<stop offset="0.66" stop-color="#D95992"/>
<stop offset="0.9" stop-color="#55ACEE"/>
</linearGradient>
</defs>
</svg>
