<svg width="161" height="161" viewBox="0 0 161 161" fill="none" xmlns="http://www.w3.org/2000/svg">
<path d="M62.9828 88.072C67.3034 83.7513 67.3034 76.7485 62.9828 72.4278L19.2006 28.6456C14.8799 24.325 7.87708 24.325 3.56275 28.6456C-0.757897 32.9663 -0.757897 39.9692 3.56275 44.2898L39.526 80.253L3.56275 116.216C-0.757897 120.537 -0.757897 127.54 3.56275 131.86C5.71992 134.018 8.55396 135.099 11.3817 135.099C14.2094 135.099 17.0434 134.018 19.2006 131.86L62.9638 88.0973C62.9638 88.0973 62.9828 88.0846 62.9891 88.0783H62.9828V88.072Z" fill="url(#paint0_linear_6838_2120)"/>
<path d="M121.118 80.253L157.082 44.2898C161.402 39.9692 161.402 32.9663 157.082 28.6456C152.761 24.325 145.758 24.325 141.437 28.6456L97.6743 72.4025C97.6743 72.4025 97.6616 72.4152 97.649 72.4215C93.3283 76.7421 93.3283 83.745 97.649 88.0656L141.431 131.848C143.588 134.005 146.422 135.087 149.25 135.087C152.078 135.087 154.912 134.005 157.069 131.848C161.39 127.527 161.39 120.524 157.069 116.204L121.106 80.2404L121.118 80.253Z" fill="url(#paint1_linear_6838_2120)"/>
<path d="M80.3157 121.049L116.279 157.012C118.436 159.169 121.27 160.251 124.098 160.251C126.926 160.251 129.76 159.169 131.917 157.012C136.237 152.691 136.237 145.688 131.917 141.368L88.1599 97.6109C88.1599 97.6109 88.1473 97.5919 88.141 97.5856C83.8203 93.2649 76.8174 93.2649 72.4968 97.5856L28.7146 141.368C24.394 145.688 24.394 152.691 28.7146 157.012C30.8718 159.169 33.7058 160.251 36.5335 160.251C39.3613 160.251 42.1953 159.169 44.3525 157.012L80.3157 121.049Z" fill="url(#paint2_linear_6838_2120)"/>
<path d="M72.4718 62.8876C72.4718 62.8876 72.4844 62.9066 72.4908 62.9129C74.6479 65.0701 77.482 66.1518 80.3097 66.1518C83.1374 66.1518 85.9715 65.0701 88.1286 62.9129L131.911 19.1307C136.231 14.8101 136.231 7.80723 131.911 3.48658C127.59 -0.834069 120.587 -0.834069 116.273 3.48658L80.3097 39.4498L44.3465 3.48658C40.0258 -0.834069 33.0229 -0.834069 28.7023 3.48658C24.3816 7.80723 24.3816 14.8101 28.7023 19.1307L72.4591 62.8939H72.4718V62.8876Z" fill="url(#paint3_linear_6838_2120)"/>
<defs>
<linearGradient id="paint0_linear_6838_2120" x1="14.1644" y1="146.083" x2="144.181" y2="16.0657" gradientUnits="userSpaceOnUse">
<stop stop-color="#F9E100"/>
<stop offset="0.45" stop-color="#FF282C"/>
<stop offset="0.66" stop-color="#D95992"/>
<stop offset="0.92" stop-color="#55ACEE"/>
</linearGradient>
<linearGradient id="paint1_linear_6838_2120" x1="14.1644" y1="146.083" x2="144.181" y2="16.0657" gradientUnits="userSpaceOnUse">
<stop stop-color="#F9E100"/>
<stop offset="0.45" stop-color="#FF282C"/>
<stop offset="0.66" stop-color="#D95992"/>
<stop offset="0.92" stop-color="#55ACEE"/>
</linearGradient>
<linearGradient id="paint2_linear_6838_2120" x1="14.1644" y1="146.083" x2="144.181" y2="16.0657" gradientUnits="userSpaceOnUse">
<stop stop-color="#F9E100"/>
<stop offset="0.45" stop-color="#FF282C"/>
<stop offset="0.66" stop-color="#D95992"/>
<stop offset="0.92" stop-color="#55ACEE"/>
</linearGradient>
<linearGradient id="paint3_linear_6838_2120" x1="14.1644" y1="146.083" x2="144.181" y2="16.0657" gradientUnits="userSpaceOnUse">
<stop stop-color="#F9E100"/>
<stop offset="0.45" stop-color="#FF282C"/>
<stop offset="0.66" stop-color="#D95992"/>
<stop offset="0.92" stop-color="#55ACEE"/>
</linearGradient>
</defs>
</svg>


