<svg width="448" height="120" viewBox="0 0 448 120" fill="none" xmlns="http://www.w3.org/2000/svg">
<path d="M47.2909 65.8675C50.5312 62.6271 50.5312 57.3751 47.2909 54.1347L14.4552 21.299C11.2148 18.0586 5.96282 18.0586 2.72717 21.299C-0.513223 24.5394 -0.513223 29.7914 2.72717 33.0318L29.6988 60.0034L2.72717 86.9751C-0.513223 90.2155 -0.513223 95.4675 2.72717 98.7079C4.34499 100.326 6.47046 101.137 8.59119 101.137C10.7119 101.137 12.8374 100.326 14.4552 98.7079L47.2766 65.8864C47.2766 65.8864 47.2909 65.877 47.2956 65.8722H47.2909V65.8675Z" fill="url(#paint0_linear_6843_19462)"/>
<path d="M90.8913 60.0034L117.863 33.0318C121.103 29.7914 121.103 24.5394 117.863 21.299C114.623 18.0586 109.371 18.0586 106.13 21.299L73.3087 54.1157C73.3087 54.1157 73.2992 54.1252 73.2897 54.1299C70.0494 57.3703 70.0494 62.6223 73.2897 65.8627L106.125 98.6984C107.743 100.316 109.869 101.127 111.989 101.127C114.11 101.127 116.236 100.316 117.853 98.6984C121.094 95.458 121.094 90.206 117.853 86.9656L90.8818 59.994L90.8913 60.0034Z" fill="url(#paint1_linear_6843_19462)"/>
<path d="M60.2902 90.5993L87.2618 117.571C88.8797 119.189 91.0051 120 93.1258 120C95.2466 120 97.372 119.189 98.9899 117.571C102.23 114.331 102.23 109.079 98.9899 105.838L66.1732 73.0214C66.1732 73.0214 66.1637 73.0072 66.159 73.0025C62.9186 69.7621 57.6666 69.7621 54.4262 73.0025L21.5905 105.838C18.3501 109.079 18.3501 114.331 21.5905 117.571C23.2083 119.189 25.3338 120 27.4545 120C29.5753 120 31.7007 119.189 33.3186 117.571L60.2902 90.5993Z" fill="url(#paint2_linear_6843_19462)"/>
<path d="M54.4074 46.9798C54.4074 46.9798 54.4169 46.994 54.4217 46.9987C56.0395 48.6166 58.1649 49.4278 60.2857 49.4278C62.4064 49.4278 64.5319 48.6166 66.1497 46.9987L98.9854 14.1631C102.226 10.9227 102.226 5.67069 98.9854 2.43029C95.745 -0.810098 90.493 -0.810098 87.2573 2.43029L60.2857 29.4019L33.314 2.43029C30.0737 -0.810098 24.8216 -0.810098 21.5813 2.43029C18.3409 5.67069 18.3409 10.9227 21.5813 14.1631L54.3979 46.9845H54.4074V46.9798Z" fill="url(#paint3_linear_6843_19462)"/>
<path d="M193.564 72.4816L183.596 59.3729L192.658 47.4409C192.971 47.0471 193.208 46.6106 193.355 46.1409C193.502 45.657 193.568 45.1778 193.568 44.6702C193.568 43.783 193.412 43.0334 193.084 42.4261C192.757 41.8188 192.368 41.3397 191.884 40.9886C191.4 40.628 190.897 40.3718 190.371 40.2152C189.835 40.0587 189.36 39.978 188.933 39.978C188.226 39.978 187.543 40.1346 186.879 40.4619C186.215 40.7893 185.669 41.2448 185.195 41.852L177.793 51.6539L170.335 41.852C169.875 41.2448 169.325 40.7846 168.689 40.4619C168.053 40.1393 167.375 39.978 166.673 39.978C166.179 39.978 165.662 40.0682 165.126 40.2484C164.599 40.4287 164.082 40.7087 163.603 41.1024C163.119 41.4962 162.73 41.9754 162.436 42.5732C162.132 43.1567 161.985 43.8636 161.985 44.6797C161.985 45.7092 162.289 46.6296 162.891 47.4504L171.953 59.3824L161.985 72.4911C161.378 73.3118 161.079 74.2275 161.079 75.2617C161.079 75.7884 161.179 76.3387 161.369 76.8891C161.558 77.4394 161.852 77.9423 162.222 78.3788C162.593 78.8295 163.076 79.1996 163.66 79.4985C164.244 79.7973 164.927 79.9492 165.714 79.9492C166.421 79.9492 167.104 79.7926 167.769 79.4985C168.428 79.1948 168.978 78.7488 169.453 78.1416L177.817 67.1157L186.129 78.1416C186.589 78.7488 187.149 79.1948 187.814 79.4985C188.478 79.8021 189.161 79.9492 189.868 79.9492C190.404 79.9492 190.945 79.8495 191.495 79.6598C192.045 79.47 192.539 79.1758 192.985 78.7868C193.436 78.393 193.791 77.9138 194.071 77.3161C194.351 76.7325 194.498 76.0493 194.498 75.2617C194.498 74.7683 194.432 74.2749 194.285 73.791C194.138 73.3071 193.915 72.8706 193.587 72.4911L193.578 72.4816H193.564Z" fill="#16094E"/>
<path d="M213.94 57.0231H201.154C200.333 57.0231 199.641 57.303 199.081 57.8771C198.507 58.4512 198.227 59.1343 198.227 59.9504C198.227 60.7664 198.507 61.4638 199.081 62.0237C199.655 62.5977 200.338 62.8776 201.154 62.8776H213.94C214.761 62.8776 215.453 62.5977 216.013 62.0237C216.587 61.4638 216.867 60.7664 216.867 59.9504C216.867 59.1343 216.587 58.4369 216.013 57.8771C215.439 57.303 214.756 57.0231 213.94 57.0231Z" fill="#16094E"/>
<path d="M253.912 71.9963L246.34 65.9188C249.257 64.8893 251.478 63.3853 253.001 61.4212C254.524 59.4475 255.288 57.0801 255.288 54.2999C255.288 52.35 254.917 50.4997 254.168 48.7585C253.418 47.0221 252.384 45.4944 251.075 44.1707C249.76 42.8565 248.228 41.827 246.487 41.0774C244.75 40.3278 242.9 39.9577 240.945 39.9577H230.607C229.331 39.9577 228.24 40.4085 227.334 41.3146C226.428 42.2208 225.977 43.312 225.977 44.5882V75.2272C225.977 76.5414 226.428 77.6516 227.334 78.5578C228.24 79.464 229.331 79.9147 230.607 79.9147C231.884 79.9147 233.032 79.464 233.938 78.5578C234.844 77.6516 235.295 76.5414 235.295 75.2272V68.4666H235.831L247.934 78.8614C248.361 79.2552 248.84 79.5209 249.371 79.6917C249.898 79.8482 250.439 79.9289 250.975 79.9289C251.725 79.9289 252.374 79.7818 252.949 79.5019C253.523 79.222 253.992 78.8424 254.362 78.3822C254.732 77.922 255.022 77.4286 255.216 76.9115C255.406 76.3944 255.506 75.8915 255.506 75.398C255.506 74.7576 255.373 74.1408 255.102 73.5383C254.832 72.931 254.443 72.4186 253.902 71.9916L253.912 72.0011V71.9963ZM244.826 58.2804C244.309 58.7976 243.716 59.2008 243.042 59.5045C242.369 59.8081 241.643 59.9552 240.855 59.9552H235.314V48.6067H240.855C241.638 48.6067 242.369 48.7633 243.042 49.0574C243.716 49.3611 244.309 49.7643 244.826 50.2815C245.343 50.7986 245.747 51.4011 246.05 52.0891C246.354 52.7865 246.51 53.5266 246.51 54.2999C246.51 55.0733 246.354 55.8134 246.05 56.4871C245.747 57.1608 245.343 57.7538 244.826 58.2709V58.2947V58.2804Z" fill="#16094E"/>
<path d="M297.953 45.3289C296.094 43.4691 293.892 41.9889 291.368 40.9119C288.844 39.8255 286.164 39.2846 283.326 39.2846C280.489 39.2846 277.809 39.8207 275.308 40.9119C272.808 41.9984 270.621 43.4691 268.761 45.3289C266.902 47.1887 265.421 49.3901 264.344 51.9141C263.258 54.4381 262.717 57.1186 262.717 59.9652C262.717 62.8119 263.253 65.4924 264.344 68.0069C265.431 70.5309 266.902 72.7181 268.761 74.5921C270.621 76.4519 272.808 77.9321 275.308 79.0233C277.809 80.1097 280.489 80.6506 283.326 80.6506C286.164 80.6506 288.844 80.1145 291.368 79.0233C293.892 77.9321 296.089 76.4661 297.953 74.5921C299.813 72.7323 301.293 70.5309 302.384 68.0069C303.471 65.4829 304.012 62.8024 304.012 59.9652C304.012 57.1281 303.476 54.4381 302.384 51.9141C301.298 49.3901 299.827 47.2029 297.953 45.3289ZM293.802 64.349C293.218 65.7154 292.412 66.9157 291.378 67.95C290.348 68.9795 289.134 69.7908 287.753 70.3743C286.363 70.9579 284.892 71.2473 283.336 71.2473C281.78 71.2473 280.309 70.9579 278.938 70.3743C277.572 69.7908 276.371 68.9842 275.337 67.95C274.307 66.9205 273.496 65.7201 272.913 64.349C272.329 62.9827 272.04 61.5119 272.04 59.951C272.04 58.3901 272.329 56.9241 272.913 55.553C273.496 54.1866 274.303 52.9863 275.337 51.952C276.366 50.9225 277.567 50.1017 278.938 49.4945C280.304 48.8872 281.775 48.5883 283.336 48.5883C284.897 48.5883 286.377 48.8919 287.753 49.4945C289.143 50.1017 290.343 50.9178 291.378 51.952C292.412 52.9863 293.218 54.1819 293.802 55.553C294.386 56.9241 294.675 58.3901 294.675 59.951C294.675 61.5119 294.386 62.9779 293.802 64.349Z" fill="#16094E"/>
<path d="M332.383 42.1543C331.562 40.2376 330.096 39.2745 327.966 39.2745C325.836 39.2745 324.431 40.2376 323.535 42.1543L309.359 73.4338C309.069 74.0743 308.932 74.6911 308.932 75.2936C308.932 76.1476 309.088 76.864 309.415 77.457C309.729 78.0406 310.122 78.5245 310.583 78.8945C311.043 79.2646 311.536 79.535 312.072 79.6916C312.599 79.8482 313.083 79.9288 313.51 79.9288C314.397 79.9288 315.237 79.6916 316.01 79.2124C316.793 78.7285 317.357 78.069 317.713 77.215L319.63 72.6842H335.993L337.853 77.215C338.214 78.069 338.774 78.7285 339.556 79.2124C340.339 79.6963 341.169 79.9288 342.057 79.9288C343.333 79.9288 344.424 79.4923 345.311 78.5956C346.198 77.7085 346.644 76.6125 346.644 75.2888C346.644 74.6483 346.521 74.0316 346.274 73.4291L332.369 42.1496L332.378 42.159L332.383 42.1543ZM323.051 64.6947L327.952 53.0189L332.739 64.6947H323.051Z" fill="#16094E"/>
<path d="M384.889 45.9695C383.219 44.1429 381.231 42.6817 378.92 41.5952C376.61 40.5087 374.119 39.9679 371.462 39.9679H358.937C357.661 39.9679 356.57 40.4186 355.664 41.3248C354.757 42.2309 354.307 43.3221 354.307 44.5984V75.2943C354.307 76.5705 354.757 77.6617 355.664 78.5679C356.57 79.4741 357.661 79.9248 358.937 79.9248H371.462C374.133 79.9248 376.61 79.3887 378.92 78.2975C381.231 77.2063 383.214 75.764 384.889 73.9232C386.559 72.0966 387.873 69.9759 388.836 67.5515C389.79 65.1414 390.274 62.5937 390.274 59.9274C390.274 57.261 389.79 54.7228 388.836 52.3032C387.873 49.8931 386.559 47.7629 384.889 45.9315V45.9695ZM380.121 64.3301C379.57 65.6775 378.821 66.8778 377.858 67.8979C376.895 68.9274 375.77 69.7482 374.47 70.3554C373.17 70.9627 371.78 71.2616 370.286 71.2616H363.625V48.6168H370.286C371.809 48.6168 373.222 48.93 374.527 49.5467C375.827 50.1635 376.951 51.0032 377.915 52.047C378.878 53.1002 379.618 54.3006 380.159 55.6717C380.685 57.0381 380.956 58.4851 380.956 60.0128C380.956 61.5404 380.676 62.9827 380.125 64.3301H380.121Z" fill="#16094E"/>
<path d="M401.755 47.9426C401.755 47.786 401.746 47.6532 401.746 47.5156V47.0886C401.746 46.7992 401.646 46.4956 401.433 46.1919C401.219 45.8883 400.897 45.6985 400.436 45.6321C400.797 45.5752 401.077 45.4755 401.276 45.3522C401.656 45.1055 401.836 44.7259 401.836 44.2088C401.836 43.4782 401.532 42.9847 400.939 42.738C400.603 42.6052 400.076 42.5245 399.36 42.5245H397.329V48.3127H398.349V46.0354H399.156C399.692 46.0354 400.076 46.1018 400.289 46.2251C400.65 46.4386 400.84 46.8751 400.84 47.5488V48.009L400.863 48.1988C400.863 48.1988 400.863 48.2415 400.873 48.2652C400.873 48.2889 400.873 48.2984 400.882 48.3221H401.836L401.803 48.2557C401.803 48.2557 401.76 48.1086 401.76 47.9521V47.9426H401.755ZM400.242 45.1956C400.028 45.2858 399.706 45.3285 399.265 45.3285H398.344V43.2315H399.217C399.791 43.2315 400.195 43.2979 400.451 43.445C400.707 43.592 400.83 43.8719 400.83 44.2989C400.83 44.7496 400.626 45.0485 400.237 45.2051V45.1956H400.242Z" fill="#16094E"/>
<path d="M399.454 40.1808C398.007 40.1808 396.764 40.6979 395.744 41.7179C394.724 42.738 394.197 43.981 394.197 45.4423C394.197 46.9035 394.7 48.156 395.72 49.1903C396.74 50.2198 397.983 50.7369 399.445 50.7369C400.906 50.7369 402.149 50.2198 403.179 49.1903C404.208 48.1608 404.725 46.913 404.725 45.4423C404.725 43.9715 404.208 42.7522 403.179 41.7179C402.149 40.6979 400.901 40.1808 399.445 40.1808H399.454ZM402.661 48.6826C401.774 49.5698 400.711 50.0158 399.454 50.0158C398.197 50.0158 397.12 49.5651 396.247 48.6826C395.374 47.7955 394.933 46.7185 394.933 45.4517C394.933 44.185 395.369 43.1318 396.257 42.2446C397.144 41.3574 398.206 40.9114 399.464 40.9114C400.721 40.9114 401.784 41.3621 402.671 42.2446C403.558 43.1318 403.995 44.1945 403.995 45.4517C403.995 46.709 403.558 47.7955 402.671 48.6826H402.661Z" fill="#16094E"/>
<path d="M428.447 82.5484C426.207 82.5484 424.082 82.1214 422.137 81.2769C420.22 80.4561 418.502 79.2937 417.032 77.8277C415.585 76.3807 414.422 74.6632 413.583 72.7228C412.738 70.7919 412.311 68.6664 412.311 66.4128C412.311 64.1593 412.823 62.0338 413.834 60.2167C414.55 58.9215 415.357 57.7876 416.23 56.8245C415.936 56.4402 415.665 56.0132 415.428 55.5435C415.129 54.9742 414.882 54.3242 414.674 53.5699C414.46 52.8155 414.356 51.9615 414.356 51.0364C414.356 49.1624 414.745 47.3927 415.513 45.7796C416.268 44.1998 417.312 42.7907 418.621 41.5951C419.921 40.4233 421.43 39.4981 423.114 38.8434C424.803 38.1887 426.601 37.8613 428.466 37.8613C430.33 37.8613 432.142 38.1934 433.817 38.8434C435.525 39.5076 437.039 40.4375 438.31 41.5951C439.605 42.767 440.649 44.1761 441.418 45.7796C442.186 47.4402 442.575 49.2003 442.575 51.0364C442.575 51.9473 442.466 52.7965 442.253 53.5699C442.053 54.2863 441.802 54.9505 441.498 55.5435C441.223 56.0607 440.957 56.4829 440.687 56.834C441.555 57.7971 442.357 58.9262 443.069 60.212C444.079 62.048 444.592 64.1308 444.592 66.4081C444.592 68.6854 444.165 70.7681 443.32 72.7181C442.476 74.6585 441.318 76.376 439.871 77.823C438.4 79.2842 436.683 80.4419 434.766 81.2721C432.802 82.1166 430.681 82.5436 428.456 82.5436L428.447 82.5484ZM428.456 40.7079C426.924 40.7079 425.51 40.9641 424.134 41.5002C422.777 42.0316 421.562 42.7717 420.523 43.7064C419.494 44.6458 418.668 45.7607 418.075 47.0084C417.492 48.2372 417.193 49.5941 417.193 51.0411C417.193 51.7053 417.264 52.2984 417.411 52.8108C417.568 53.3754 417.743 53.8403 417.952 54.2436C418.142 54.6184 418.351 54.941 418.574 55.2067C418.839 55.5293 419.062 55.795 419.238 56.0037L420.125 57.057L419.105 57.9774C418.085 58.9025 417.146 60.1218 416.325 61.6068C415.551 63.0016 415.158 64.6195 415.158 66.4223C415.158 68.2252 415.504 70.0185 416.192 71.5937C416.894 73.2067 417.852 74.63 419.043 75.8209C420.253 77.0307 421.676 77.989 423.261 78.6722C424.855 79.3649 426.596 79.7112 428.442 79.7112C430.287 79.7112 432.019 79.3602 433.623 78.6722C435.212 77.9843 436.635 77.0212 437.85 75.8161C439.055 74.6111 439.99 73.2257 440.696 71.5937C441.384 70.009 441.736 68.2679 441.736 66.4176C441.736 64.5673 441.342 63.0064 440.568 61.5973C439.752 60.1266 438.818 58.9073 437.798 57.9774L436.82 57.0854L437.674 55.999C437.85 55.7902 438.073 55.5245 438.339 55.2019C438.538 54.96 438.742 54.6421 438.965 54.2246C439.169 53.8261 439.354 53.3421 439.496 52.8155C439.643 52.2889 439.714 51.6959 439.714 51.0411C439.714 49.6036 439.425 48.2847 438.827 46.999C438.229 45.7417 437.404 44.6315 436.384 43.7111C435.369 42.7812 434.154 42.0411 432.773 41.505C431.431 40.9831 429.979 40.7174 428.456 40.7174V40.7079ZM428.466 73.0644C426.606 73.0644 425.012 72.4144 423.721 71.1382C422.421 69.8525 421.762 68.2584 421.762 66.4033C421.762 64.5483 422.416 62.9447 423.716 61.6495C425.012 60.3543 426.611 59.6948 428.47 59.6948C429.376 59.6948 430.245 59.8704 431.051 60.212C431.844 60.5536 432.555 61.0327 433.167 61.6448C433.784 62.2615 434.268 62.9921 434.609 63.8129C434.951 64.6337 435.122 65.5067 435.122 66.4081C435.122 67.3095 434.965 68.116 434.638 68.9226L434.609 68.9938C434.277 69.8003 433.784 70.5214 433.158 71.1382C432.555 71.7265 431.844 72.2009 431.051 72.5378C430.249 72.8841 429.381 73.0549 428.47 73.0549L428.466 73.0644ZM428.466 62.5462C427.374 62.5462 426.478 62.9115 425.728 63.6658C424.978 64.4202 424.608 65.3169 424.608 66.4033C424.608 67.4898 424.964 68.3628 425.723 69.1124C426.473 69.8525 427.37 70.213 428.47 70.213C428.997 70.213 429.476 70.1182 429.927 69.9236C430.397 69.7244 430.814 69.4445 431.165 69.1029C431.511 68.766 431.768 68.3912 431.957 67.9547L431.981 67.8931C432.18 67.4139 432.271 66.9442 432.271 66.4128C432.271 65.8815 432.176 65.388 431.976 64.9041C431.782 64.4297 431.502 64.0122 431.151 63.6611C430.795 63.3053 430.382 63.0254 429.927 62.8308C429.471 62.6363 428.997 62.5414 428.47 62.5414L428.466 62.5462ZM428.456 56.2599C427.033 56.2599 425.752 55.7333 424.751 54.7322C423.75 53.7312 423.223 52.4502 423.223 51.0269C423.223 49.6036 423.75 48.3226 424.751 47.3216C425.752 46.3205 427.028 45.7939 428.456 45.7939C429.884 45.7939 431.16 46.3205 432.161 47.3216C433.162 48.3226 433.689 49.6036 433.689 51.0269C433.689 52.4502 433.162 53.7312 432.161 54.7322C431.16 55.7333 429.879 56.2599 428.456 56.2599ZM428.456 48.6215C427.759 48.6215 427.232 48.835 426.753 49.3189C426.269 49.8029 426.055 50.3295 426.055 51.0269C426.055 51.7243 426.274 52.2509 426.753 52.7349C427.237 53.2188 427.763 53.4323 428.461 53.4323C429.158 53.4323 429.685 53.2188 430.169 52.7349C430.653 52.2509 430.866 51.7243 430.866 51.0269C430.866 50.3295 430.648 49.8029 430.169 49.3189C429.685 48.835 429.158 48.6215 428.466 48.6215H428.456Z" fill="#16094E"/>
<defs>
<linearGradient id="paint0_linear_6843_19462" x1="10.6781" y1="109.374" x2="108.188" y2="11.8643" gradientUnits="userSpaceOnUse">
<stop stop-color="#F9E100"/>
<stop offset="0.45" stop-color="#FF282C"/>
<stop offset="0.66" stop-color="#D95992"/>
<stop offset="0.92" stop-color="#55ACEE"/>
</linearGradient>
<linearGradient id="paint1_linear_6843_19462" x1="10.6781" y1="109.374" x2="108.188" y2="11.8643" gradientUnits="userSpaceOnUse">
<stop stop-color="#F9E100"/>
<stop offset="0.45" stop-color="#FF282C"/>
<stop offset="0.66" stop-color="#D95992"/>
<stop offset="0.92" stop-color="#55ACEE"/>
</linearGradient>
<linearGradient id="paint2_linear_6843_19462" x1="10.6781" y1="109.374" x2="108.188" y2="11.8643" gradientUnits="userSpaceOnUse">
<stop stop-color="#F9E100"/>
<stop offset="0.45" stop-color="#FF282C"/>
<stop offset="0.66" stop-color="#D95992"/>
<stop offset="0.92" stop-color="#55ACEE"/>
</linearGradient>
<linearGradient id="paint3_linear_6843_19462" x1="10.6781" y1="109.374" x2="108.188" y2="11.8643" gradientUnits="userSpaceOnUse">
<stop stop-color="#F9E100"/>
<stop offset="0.45" stop-color="#FF282C"/>
<stop offset="0.66" stop-color="#D95992"/>
<stop offset="0.92" stop-color="#55ACEE"/>
</linearGradient>
</defs>
</svg>
