<svg width="161" height="224" viewBox="0 0 161 224" fill="none" xmlns="http://www.w3.org/2000/svg">
<path d="M18.6486 216.876L13.0248 209.481L18.1362 202.75C18.3134 202.528 18.4462 202.282 18.5285 202.016C18.6107 201.744 18.6486 201.472 18.6486 201.187C18.6486 200.687 18.5601 200.264 18.3766 199.922C18.1932 199.58 17.9718 199.308 17.6998 199.112C17.4277 198.91 17.1431 198.764 16.8457 198.676C16.5421 198.587 16.2764 198.543 16.036 198.543C15.6375 198.543 15.2516 198.631 14.8784 198.815C14.5051 198.998 14.1952 199.258 13.9295 199.599L9.75431 205.128L5.54753 199.599C5.28816 199.258 4.97819 198.998 4.61761 198.815C4.25703 198.631 3.87747 198.543 3.47893 198.543C3.20059 198.543 2.9096 198.593 2.60595 198.695C2.30863 198.796 2.01763 198.954 1.74561 199.175C1.4736 199.397 1.25219 199.669 1.08771 200.004C0.916908 200.333 0.834669 200.732 0.834669 201.193C0.834669 201.775 1.00547 202.294 1.34707 202.756L6.45847 209.487L0.834669 216.882C0.493066 217.344 0.322266 217.862 0.322266 218.444C0.322266 218.742 0.379196 219.052 0.486738 219.362C0.59428 219.672 0.758757 219.956 0.967514 220.203C1.17627 220.456 1.44829 220.665 1.77724 220.836C2.10619 221.006 2.49208 221.089 2.9349 221.089C3.33343 221.089 3.71932 221 4.09255 220.836C4.46579 220.665 4.77576 220.412 5.04145 220.07L9.76064 213.852L14.4482 220.07C14.7076 220.412 15.0239 220.665 15.3971 220.836C15.7703 221.006 16.1562 221.089 16.5547 221.089C16.8584 221.089 17.162 221.032 17.472 220.924C17.782 220.817 18.0603 220.652 18.3134 220.431C18.5664 220.209 18.7688 219.937 18.927 219.602C19.0851 219.273 19.1674 218.887 19.1674 218.444C19.1674 218.166 19.1294 217.888 19.0472 217.616C18.965 217.344 18.8384 217.097 18.655 216.882L18.6486 216.876Z" fill="#16094E"/>
<path d="M30.1427 208.16H22.9311C22.4693 208.16 22.0771 208.318 21.7608 208.641C21.4381 208.964 21.28 209.35 21.28 209.811C21.28 210.273 21.4381 210.665 21.7608 210.982C22.0834 211.304 22.4693 211.462 22.9311 211.462H30.1427C30.6045 211.462 30.9967 211.304 31.313 210.982C31.6356 210.665 31.7938 210.273 31.7938 209.811C31.7938 209.35 31.6356 208.957 31.313 208.641C30.9904 208.318 30.6045 208.16 30.1427 208.16Z" fill="#16094E"/>
<path d="M52.689 216.603L48.419 213.175C50.0637 212.593 51.3163 211.745 52.1766 210.638C53.037 209.524 53.4671 208.19 53.4671 206.621C53.4671 205.52 53.2584 204.476 52.8345 203.496C52.4107 202.515 51.8287 201.655 51.0885 200.908C50.3484 200.168 49.4818 199.586 48.5012 199.162C47.5207 198.739 46.4769 198.53 45.3762 198.53H39.5436C38.8225 198.53 38.2088 198.783 37.6964 199.295C37.184 199.808 36.931 200.421 36.931 201.143V218.425C36.931 219.165 37.184 219.792 37.6964 220.304C38.2088 220.816 38.8225 221.069 39.5436 221.069C40.2648 221.069 40.91 220.816 41.4224 220.304C41.9348 219.792 42.1879 219.165 42.1879 218.425V214.611H42.4915L49.3173 220.475C49.5577 220.696 49.8297 220.848 50.127 220.943C50.4243 221.031 50.728 221.076 51.0316 221.076C51.4555 221.076 51.8224 220.993 52.145 220.835C52.4676 220.677 52.7333 220.462 52.9421 220.203C53.1508 219.943 53.3153 219.665 53.4228 219.374C53.5304 219.083 53.5873 218.798 53.5873 218.52C53.5873 218.159 53.5114 217.812 53.3596 217.47C53.2078 217.128 52.9863 216.837 52.6827 216.597L52.689 216.603ZM47.565 208.873C47.274 209.164 46.9387 209.392 46.5591 209.562C46.1796 209.733 45.7684 209.815 45.3256 209.815H42.2005V203.414H45.3256C45.7684 203.414 46.1796 203.502 46.5591 203.667C46.9387 203.837 47.274 204.065 47.565 204.356C47.856 204.647 48.0837 204.989 48.2545 205.375C48.4253 205.767 48.5139 206.184 48.5139 206.621C48.5139 207.057 48.4253 207.475 48.2545 207.854C48.0837 208.234 47.856 208.569 47.565 208.86V208.873Z" fill="#16094E"/>
<path d="M77.5306 201.56C76.4805 200.51 75.2406 199.675 73.8172 199.068C72.3939 198.454 70.882 198.151 69.2815 198.151C67.681 198.151 66.1691 198.454 64.7584 199.068C63.3477 199.682 62.1141 200.51 61.064 201.56C60.0139 202.611 59.1789 203.85 58.5716 205.274C57.958 206.697 57.6543 208.209 57.6543 209.816C57.6543 211.423 57.958 212.935 58.5716 214.352C59.1852 215.775 60.0139 217.008 61.064 218.065C62.1141 219.115 63.3477 219.95 64.7584 220.564C66.1691 221.177 67.681 221.481 69.2815 221.481C70.882 221.481 72.3939 221.177 73.8172 220.564C75.2406 219.95 76.4805 219.121 77.5306 218.065C78.5807 217.015 79.4157 215.775 80.0293 214.352C80.643 212.928 80.9466 211.416 80.9466 209.816C80.9466 208.215 80.643 206.697 80.0293 205.274C79.4157 203.85 78.587 202.617 77.5306 201.56ZM75.19 212.289C74.861 213.061 74.4055 213.738 73.8235 214.32C73.2416 214.902 72.5583 215.357 71.7803 215.686C70.9958 216.015 70.1671 216.18 69.2878 216.18C68.4085 216.18 67.5798 216.015 66.808 215.686C66.0363 215.357 65.3594 214.902 64.7774 214.32C64.1954 213.738 63.7399 213.061 63.411 212.289C63.082 211.518 62.9175 210.689 62.9175 209.809C62.9175 208.93 63.082 208.101 63.411 207.33C63.7399 206.558 64.1954 205.881 64.7774 205.299C65.3594 204.717 66.0363 204.255 66.808 203.914C67.5798 203.572 68.4085 203.401 69.2878 203.401C70.1671 203.401 71.0022 203.572 71.7803 203.914C72.5647 204.255 73.2416 204.717 73.8235 205.299C74.4055 205.881 74.861 206.558 75.19 207.33C75.5189 208.101 75.6834 208.93 75.6834 209.809C75.6834 210.689 75.5189 211.518 75.19 212.289Z" fill="#16094E"/>
<path d="M96.9516 199.771C96.4898 198.69 95.6611 198.146 94.4592 198.146C93.2572 198.146 92.4665 198.69 91.9604 199.771L83.9643 217.414C83.7999 217.775 83.724 218.123 83.724 218.465C83.724 218.945 83.8125 219.35 83.996 219.686C84.1731 220.014 84.3945 220.286 84.6539 220.495C84.9132 220.704 85.1916 220.856 85.4952 220.944C85.7925 221.033 86.0646 221.077 86.305 221.077C86.8047 221.077 87.2792 220.944 87.7157 220.672C88.1585 220.4 88.4748 220.027 88.6772 219.546L89.7589 216.991H98.9886L100.039 219.546C100.241 220.027 100.557 220.4 101 220.672C101.443 220.944 101.911 221.077 102.411 221.077C103.132 221.077 103.746 220.83 104.245 220.324C104.745 219.825 104.998 219.205 104.998 218.458C104.998 218.098 104.929 217.75 104.79 217.408L96.9453 199.765L96.9516 199.771ZM91.6884 212.493L94.4528 205.908L97.154 212.493H91.6884Z" fill="#16094E"/>
<path d="M126.57 201.922C125.628 200.891 124.508 200.069 123.205 199.455C121.902 198.841 120.497 198.538 118.998 198.538H111.932C111.211 198.538 110.597 198.791 110.085 199.303C109.572 199.816 109.319 200.429 109.319 201.15V218.465C109.319 219.186 109.572 219.799 110.085 220.312C110.597 220.824 111.211 221.077 111.932 221.077H118.998C120.504 221.077 121.902 220.774 123.205 220.16C124.508 219.546 125.628 218.73 126.57 217.693C127.513 216.662 128.253 215.466 128.797 214.1C129.335 212.74 129.607 211.304 129.607 209.798C129.607 208.292 129.335 206.863 128.797 205.496C128.253 204.136 127.513 202.934 126.57 201.903V201.922ZM123.882 212.278C123.572 213.037 123.148 213.714 122.604 214.289C122.06 214.871 121.427 215.333 120.693 215.675C119.96 216.016 119.175 216.187 118.334 216.187H114.576V203.415H118.334C119.194 203.415 119.991 203.592 120.725 203.94C121.459 204.288 122.091 204.762 122.635 205.351C123.18 205.945 123.597 206.622 123.901 207.394C124.198 208.166 124.35 208.982 124.35 209.842C124.35 210.703 124.192 211.519 123.882 212.278Z" fill="#16094E"/>
<path d="M136.084 203.036C136.084 202.947 136.078 202.871 136.078 202.795V202.555C136.078 202.391 136.021 202.22 135.901 202.049C135.781 201.878 135.597 201.771 135.338 201.733C135.54 201.701 135.698 201.644 135.812 201.575C136.027 201.435 136.129 201.22 136.129 200.929C136.129 200.518 135.958 200.24 135.622 200.101C135.433 200.025 135.135 199.98 134.731 199.98H133.586V203.245H134.161V201.96H134.617C134.92 201.96 135.135 201.998 135.256 202.068C135.458 202.188 135.566 202.435 135.566 202.814V203.074L135.578 203.181C135.578 203.181 135.578 203.207 135.585 203.219C135.585 203.232 135.585 203.238 135.591 203.251H136.129L136.11 203.213C136.11 203.213 136.084 203.131 136.084 203.042V203.036ZM135.23 201.48C135.11 201.53 134.927 201.556 134.68 201.556H134.161V200.373H134.655C134.977 200.373 135.205 200.411 135.35 200.493C135.496 200.575 135.566 200.733 135.566 200.974C135.566 201.227 135.452 201.397 135.23 201.486V201.48Z" fill="#16094E"/>
<path d="M134.788 198.658C133.972 198.658 133.27 198.949 132.694 199.525C132.118 200.101 131.821 200.803 131.821 201.625C131.821 202.448 132.106 203.156 132.681 203.738C133.257 204.32 133.959 204.611 134.782 204.611C135.604 204.611 136.306 204.32 136.888 203.738C137.47 203.156 137.761 202.454 137.761 201.625C137.761 200.797 137.47 200.107 136.888 199.525C136.306 198.949 135.604 198.658 134.782 198.658H134.788ZM136.597 203.454C136.097 203.953 135.496 204.206 134.788 204.206C134.079 204.206 133.472 203.953 132.979 203.454C132.485 202.954 132.239 202.347 132.239 201.632C132.239 200.917 132.485 200.322 132.985 199.822C133.485 199.323 134.086 199.07 134.794 199.07C135.503 199.07 136.104 199.323 136.604 199.822C137.103 200.322 137.35 200.923 137.35 201.632C137.35 202.34 137.103 202.954 136.604 203.454H136.597Z" fill="#16094E"/>
<path d="M156.96 208.095C157.061 207.975 157.188 207.823 157.339 207.64C157.491 207.456 157.637 207.229 157.782 206.956C157.921 206.684 158.048 206.362 158.149 205.995C158.25 205.628 158.301 205.223 158.301 204.78C158.301 203.844 158.105 202.977 157.725 202.161C157.339 201.352 156.814 200.643 156.156 200.048C155.499 199.448 154.733 198.986 153.873 198.65C153.012 198.315 152.102 198.151 151.146 198.151C150.191 198.151 149.286 198.315 148.42 198.65C147.559 198.986 146.794 199.454 146.136 200.048C145.478 200.649 144.953 201.352 144.567 202.161C144.181 202.971 143.992 203.844 143.992 204.78C143.992 205.229 144.042 205.634 144.143 205.995C144.245 206.362 144.365 206.678 144.51 206.956C144.65 207.229 144.801 207.456 144.953 207.64C145.105 207.823 145.232 207.975 145.333 208.095C144.681 208.683 144.105 209.436 143.599 210.347C143.093 211.258 142.84 212.296 142.84 213.453C142.84 214.611 143.055 215.693 143.492 216.692C143.928 217.698 144.523 218.577 145.269 219.324C146.022 220.077 146.895 220.671 147.901 221.101C148.907 221.538 149.989 221.753 151.14 221.753C152.291 221.753 153.379 221.532 154.379 221.101C155.385 220.665 156.258 220.07 157.01 219.324C157.763 218.571 158.352 217.698 158.788 216.692C159.225 215.686 159.44 214.605 159.44 213.453C159.44 212.302 159.187 211.264 158.681 210.347C158.174 209.436 157.592 208.683 156.947 208.095H156.96ZM149.445 203.072C149.913 202.604 150.482 202.37 151.146 202.37C151.811 202.37 152.38 202.604 152.848 203.072C153.316 203.54 153.55 204.11 153.55 204.774C153.55 205.438 153.316 206.008 152.848 206.476C152.38 206.944 151.811 207.178 151.146 207.178C150.482 207.178 149.913 206.944 149.445 206.476C148.977 206.008 148.742 205.438 148.742 204.774C148.742 204.11 148.977 203.54 149.445 203.072ZM153.873 214.605C153.721 214.972 153.506 215.281 153.234 215.547C152.962 215.813 152.646 216.022 152.291 216.173C151.937 216.325 151.557 216.401 151.153 216.401C150.318 216.401 149.615 216.117 149.04 215.547C148.464 214.978 148.173 214.282 148.173 213.447C148.173 212.612 148.464 211.91 149.04 211.334C149.615 210.758 150.324 210.467 151.153 210.467C151.557 210.467 151.937 210.543 152.291 210.695C152.646 210.847 152.962 211.062 153.234 211.334C153.506 211.606 153.721 211.929 153.873 212.296C154.025 212.663 154.101 213.048 154.101 213.453C154.101 213.858 154.025 214.244 153.873 214.611V214.605Z" fill="#16094E"/>
<path d="M62.9828 91.072C67.3034 86.7513 67.3034 79.7485 62.9828 75.4278L19.2006 31.6456C14.8799 27.325 7.87708 27.325 3.56275 31.6456C-0.757897 35.9663 -0.757897 42.9692 3.56275 47.2898L39.526 83.253L3.56275 119.216C-0.757897 123.537 -0.757897 130.54 3.56275 134.86C5.71992 137.018 8.55396 138.099 11.3817 138.099C14.2094 138.099 17.0434 137.018 19.2006 134.86L62.9638 91.0973C62.9638 91.0973 62.9828 91.0846 62.9891 91.0783H62.9828V91.072Z" fill="url(#paint0_linear_9262_360694)"/>
<path d="M121.118 83.253L157.082 47.2898C161.402 42.9692 161.402 35.9663 157.082 31.6456C152.761 27.325 145.758 27.325 141.437 31.6456L97.6743 75.4025C97.6743 75.4025 97.6616 75.4152 97.649 75.4215C93.3283 79.7421 93.3283 86.745 97.649 91.0656L141.431 134.848C143.588 137.005 146.422 138.087 149.25 138.087C152.078 138.087 154.912 137.005 157.069 134.848C161.39 130.527 161.39 123.524 157.069 119.204L121.106 83.2404L121.118 83.253Z" fill="url(#paint1_linear_9262_360694)"/>
<path d="M80.3157 124.049L116.279 160.012C118.436 162.169 121.27 163.251 124.098 163.251C126.926 163.251 129.76 162.169 131.917 160.012C136.237 155.691 136.237 148.688 131.917 144.368L88.1599 100.611C88.1599 100.611 88.1473 100.592 88.141 100.586C83.8203 96.2649 76.8174 96.2649 72.4968 100.586L28.7146 144.368C24.394 148.688 24.394 155.691 28.7146 160.012C30.8718 162.169 33.7058 163.251 36.5335 163.251C39.3613 163.251 42.1953 162.169 44.3525 160.012L80.3157 124.049Z" fill="url(#paint2_linear_9262_360694)"/>
<path d="M72.4718 65.8876C72.4718 65.8876 72.4844 65.9066 72.4908 65.9129C74.6479 68.0701 77.482 69.1518 80.3097 69.1518C83.1374 69.1518 85.9715 68.0701 88.1286 65.9129L131.911 22.1307C136.231 17.8101 136.231 10.8072 131.911 6.48658C127.59 2.16593 120.587 2.16593 116.273 6.48658L80.3097 42.4498L44.3465 6.48658C40.0258 2.16593 33.0229 2.16593 28.7023 6.48658C24.3816 10.8072 24.3816 17.8101 28.7023 22.1307L72.4591 65.8939H72.4718V65.8876Z" fill="url(#paint3_linear_9262_360694)"/>
<defs>
<linearGradient id="paint0_linear_9262_360694" x1="14.1644" y1="149.083" x2="144.181" y2="19.0657" gradientUnits="userSpaceOnUse">
<stop stop-color="#F9E100"/>
<stop offset="0.45" stop-color="#FF282C"/>
<stop offset="0.66" stop-color="#D95992"/>
<stop offset="0.92" stop-color="#55ACEE"/>
</linearGradient>
<linearGradient id="paint1_linear_9262_360694" x1="14.1644" y1="149.083" x2="144.181" y2="19.0657" gradientUnits="userSpaceOnUse">
<stop stop-color="#F9E100"/>
<stop offset="0.45" stop-color="#FF282C"/>
<stop offset="0.66" stop-color="#D95992"/>
<stop offset="0.92" stop-color="#55ACEE"/>
</linearGradient>
<linearGradient id="paint2_linear_9262_360694" x1="14.1644" y1="149.083" x2="144.181" y2="19.0657" gradientUnits="userSpaceOnUse">
<stop stop-color="#F9E100"/>
<stop offset="0.45" stop-color="#FF282C"/>
<stop offset="0.66" stop-color="#D95992"/>
<stop offset="0.92" stop-color="#55ACEE"/>
</linearGradient>
<linearGradient id="paint3_linear_9262_360694" x1="14.1644" y1="149.083" x2="144.181" y2="19.0657" gradientUnits="userSpaceOnUse">
<stop stop-color="#F9E100"/>
<stop offset="0.45" stop-color="#FF282C"/>
<stop offset="0.66" stop-color="#D95992"/>
<stop offset="0.92" stop-color="#55ACEE"/>
</linearGradient>
</defs>
</svg>
