<svg width="150" height="40" viewBox="0 0 150 40" fill="none" xmlns="http://www.w3.org/2000/svg">
<path d="M15.7638 21.9558C16.8439 20.8757 16.8439 19.125 15.7638 18.0449L4.81857 7.09968C3.73843 6.01955 1.98777 6.01955 0.909219 7.09968C-0.170912 8.17981 -0.170912 9.93047 0.909219 11.0106L9.89977 20.0012L0.909219 28.9917C-0.170912 30.0718 -0.170912 31.8225 0.909219 32.9026C1.44849 33.4419 2.15698 33.7123 2.86389 33.7123C3.5708 33.7123 4.27929 33.4419 4.81857 32.9026L15.759 21.9622C15.759 21.9622 15.7638 21.959 15.7654 21.9574H15.7638V21.9558Z" fill="url(#paint0_linear_9648_354216)"/>
<path d="M30.2973 20.0012L39.2878 11.0106C40.3679 9.93047 40.3679 8.17981 39.2878 7.09968C38.2077 6.01955 36.457 6.01955 35.3769 7.09968L24.4364 18.0386C24.4364 18.0386 24.4332 18.0417 24.4301 18.0433C23.35 19.1234 23.35 20.8741 24.4301 21.9542L35.3753 32.8995C35.9146 33.4387 36.6231 33.7092 37.33 33.7092C38.0369 33.7092 38.7454 33.4387 39.2846 32.8995C40.3648 31.8193 40.3648 30.0687 39.2846 28.9885L30.2941 19.998L30.2973 20.0012Z" fill="url(#paint1_linear_9648_354216)"/>
<path d="M20.0969 30.1998L29.0874 39.1903C29.6267 39.7296 30.3352 40 31.0421 40C31.749 40 32.4575 39.7296 32.9968 39.1903C34.0769 38.1102 34.0769 36.3595 32.9968 35.2794L22.0579 24.3405C22.0579 24.3405 22.0547 24.3357 22.0531 24.3342C20.973 23.254 19.2224 23.254 18.1422 24.3342L7.197 35.2794C6.11687 36.3595 6.11687 38.1102 7.197 39.1903C7.73628 39.7296 8.44477 40 9.15167 40C9.85858 40 10.5671 39.7296 11.1063 39.1903L20.0969 30.1998Z" fill="url(#paint2_linear_9648_354216)"/>
<path d="M18.136 15.6599C18.136 15.6599 18.1391 15.6647 18.1407 15.6662C18.68 16.2055 19.3885 16.4759 20.0954 16.4759C20.8023 16.4759 21.5108 16.2055 22.0501 15.6662L32.9953 4.72102C34.0754 3.64089 34.0754 1.89023 32.9953 0.810098C31.9152 -0.270033 30.1645 -0.270033 29.0859 0.810098L20.0954 9.80064L11.1048 0.810098C10.0247 -0.270033 8.27405 -0.270033 7.19392 0.810098C6.11378 1.89023 6.11378 3.64089 7.19392 4.72102L18.1328 15.6615H18.136V15.6599Z" fill="url(#paint3_linear_9648_354216)"/>
<path d="M64.5211 24.1602L61.1984 19.7907L64.219 15.8133C64.3234 15.682 64.4024 15.5365 64.4515 15.38C64.5005 15.2187 64.5226 15.059 64.5226 14.8897C64.5226 14.594 64.4705 14.3441 64.3613 14.1417C64.2522 13.9393 64.1225 13.7796 63.9612 13.6625C63.7999 13.5423 63.6323 13.4569 63.4567 13.4048C63.278 13.3526 63.1199 13.3257 62.9776 13.3257C62.7419 13.3257 62.5142 13.3779 62.2928 13.487C62.0714 13.5961 61.8895 13.7479 61.7314 13.9504L59.2643 17.2176L56.7783 13.9504C56.6249 13.7479 56.4414 13.5945 56.2295 13.487C56.0176 13.3795 55.7915 13.3257 55.5574 13.3257C55.3929 13.3257 55.2206 13.3557 55.0418 13.4158C54.8663 13.4759 54.6939 13.5692 54.5342 13.7005C54.3729 13.8317 54.2432 13.9915 54.1452 14.1907C54.044 14.3853 53.9949 14.6209 53.9949 14.8929C53.9949 15.2361 54.0961 15.5429 54.297 15.8165L57.3176 19.7938L53.9949 24.1634C53.7925 24.4369 53.6929 24.7422 53.6929 25.0869C53.6929 25.2625 53.7261 25.4459 53.7893 25.6294C53.8526 25.8128 53.9506 25.9804 54.074 26.1259C54.1974 26.2762 54.3587 26.3995 54.5532 26.4992C54.7477 26.5988 54.9754 26.6494 55.238 26.6494C55.4736 26.6494 55.7013 26.5972 55.9227 26.4992C56.1425 26.3979 56.326 26.2493 56.4841 26.0469L59.2722 22.3716L62.0429 26.0469C62.1963 26.2493 62.3829 26.3979 62.6043 26.4992C62.8257 26.6004 63.0535 26.6494 63.2891 26.6494C63.4678 26.6494 63.6481 26.6162 63.8315 26.5529C64.015 26.4897 64.1795 26.3916 64.3281 26.2619C64.4784 26.1307 64.597 25.971 64.6903 25.7717C64.7836 25.5772 64.8326 25.3494 64.8326 25.0869C64.8326 24.9225 64.8105 24.758 64.7614 24.5967C64.7124 24.4354 64.6381 24.2899 64.529 24.1634L64.5258 24.1602H64.5211Z" fill="white"/>
<path d="M71.3132 19.0074H67.0512C66.7776 19.0074 66.5467 19.1007 66.3601 19.292C66.1687 19.4834 66.0754 19.7111 66.0754 19.9831C66.0754 20.2551 66.1687 20.4876 66.3601 20.6742C66.5514 20.8656 66.7792 20.9589 67.0512 20.9589H71.3132C71.5868 20.9589 71.8176 20.8656 72.0043 20.6742C72.1956 20.4876 72.2889 20.2551 72.2889 19.9831C72.2889 19.7111 72.1956 19.4786 72.0043 19.292C71.8129 19.1007 71.5852 19.0074 71.3132 19.0074Z" fill="white"/>
<path d="M84.6371 23.9985L82.1131 21.9726C83.0857 21.6294 83.8258 21.1281 84.3334 20.4734C84.8411 19.8155 85.0957 19.0264 85.0957 18.0996C85.0957 17.4497 84.9723 16.8329 84.7225 16.2525C84.4726 15.6737 84.1278 15.1645 83.6914 14.7233C83.2533 14.2852 82.7425 13.942 82.1621 13.6921C81.5833 13.4423 80.9665 13.3189 80.315 13.3189H76.869C76.4436 13.3189 76.0798 13.4692 75.7778 13.7712C75.4757 14.0733 75.3255 14.437 75.3255 14.8624V25.0754C75.3255 25.5135 75.4757 25.8835 75.7778 26.1856C76.0798 26.4877 76.4436 26.6379 76.869 26.6379C77.2944 26.6379 77.6771 26.4877 77.9792 26.1856C78.2812 25.8835 78.4314 25.5135 78.4314 25.0754V22.8219H78.6102L82.6444 26.2868C82.7868 26.4181 82.9465 26.5066 83.1236 26.5636C83.2991 26.6158 83.4794 26.6426 83.6581 26.6426C83.908 26.6426 84.1247 26.5936 84.316 26.5003C84.5074 26.407 84.6639 26.2805 84.7873 26.1271C84.9106 25.9737 85.0071 25.8092 85.072 25.6368C85.1352 25.4645 85.1684 25.2968 85.1684 25.1324C85.1684 24.9189 85.1241 24.7133 85.034 24.5124C84.9439 24.31 84.8142 24.1392 84.6339 23.9969L84.6371 24V23.9985ZM81.6086 19.4265C81.4362 19.5989 81.2385 19.7333 81.014 19.8345C80.7894 19.9357 80.5474 19.9847 80.2849 19.9847H78.4378V16.2019H80.2849C80.5458 16.2019 80.7894 16.2541 81.014 16.3521C81.2385 16.4534 81.4362 16.5878 81.6086 16.7602C81.781 16.9325 81.9154 17.1334 82.0166 17.3627C82.1178 17.5952 82.17 17.8419 82.17 18.0996C82.17 18.3574 82.1178 18.6041 82.0166 18.8287C81.9154 19.0533 81.781 19.2509 81.6086 19.4233V19.4312V19.4265Z" fill="white"/>
<path d="M99.3176 15.1093C98.6977 14.4894 97.9639 13.996 97.1226 13.637C96.2812 13.2748 95.3877 13.0945 94.442 13.0945C93.4963 13.0945 92.6028 13.2733 91.7693 13.637C90.9359 13.9991 90.2069 14.4894 89.5869 15.1093C88.967 15.7292 88.4736 16.463 88.1146 17.3044C87.7525 18.1457 87.5722 19.0392 87.5722 19.9881C87.5722 20.937 87.7509 21.8305 88.1146 22.6686C88.4768 23.51 88.967 24.239 89.5869 24.8637C90.2069 25.4836 90.9359 25.977 91.7693 26.3408C92.6028 26.7029 93.4963 26.8832 94.442 26.8832C95.3877 26.8832 96.2812 26.7045 97.1226 26.3408C97.9639 25.977 98.6961 25.4884 99.3176 24.8637C99.9375 24.2438 100.431 23.51 100.795 22.6686C101.157 21.8273 101.337 20.9338 101.337 19.9881C101.337 19.0424 101.158 18.1457 100.795 17.3044C100.433 16.463 99.9423 15.734 99.3176 15.1093ZM97.9338 21.4493C97.7393 21.9048 97.4705 22.3049 97.1257 22.6497C96.7825 22.9928 96.3777 23.2633 95.9175 23.4578C95.4541 23.6523 94.9639 23.7488 94.4452 23.7488C93.9264 23.7488 93.4362 23.6523 92.9792 23.4578C92.5237 23.2633 92.1236 22.9944 91.7788 22.6497C91.4356 22.3065 91.1652 21.9064 90.9707 21.4493C90.7762 20.9939 90.6797 20.5036 90.6797 19.9833C90.6797 19.463 90.7762 18.9744 90.9707 18.5173C91.1652 18.0619 91.4341 17.6618 91.7788 17.317C92.122 16.9738 92.5221 16.7003 92.9792 16.4978C93.4346 16.2954 93.9249 16.1958 94.4452 16.1958C94.9655 16.1958 95.4589 16.297 95.9175 16.4978C96.3809 16.7003 96.781 16.9723 97.1257 17.317C97.4705 17.6618 97.7393 18.0603 97.9338 18.5173C98.1284 18.9744 98.2248 19.463 98.2248 19.9833C98.2248 20.5036 98.1284 20.9923 97.9338 21.4493Z" fill="white"/>
<path d="M110.794 14.0511C110.521 13.4122 110.032 13.0912 109.322 13.0912C108.612 13.0912 108.144 13.4122 107.845 14.0511L103.119 24.4776C103.023 24.6911 102.977 24.8967 102.977 25.0975C102.977 25.3822 103.029 25.621 103.138 25.8187C103.243 26.0132 103.374 26.1745 103.527 26.2979C103.681 26.4212 103.845 26.5114 104.024 26.5635C104.199 26.6157 104.361 26.6426 104.503 26.6426C104.799 26.6426 105.079 26.5635 105.337 26.4038C105.597 26.2425 105.786 26.0227 105.904 25.738L106.543 24.2277H111.998L112.618 25.738C112.738 26.0227 112.924 26.2425 113.185 26.4038C113.446 26.5651 113.723 26.6426 114.019 26.6426C114.444 26.6426 114.808 26.4971 115.104 26.1982C115.399 25.9025 115.548 25.5372 115.548 25.096C115.548 24.8825 115.507 24.6769 115.425 24.476L110.789 14.0495L110.793 14.0527L110.794 14.0511ZM107.683 21.5646L109.317 17.6726L110.913 21.5646H107.683Z" fill="white"/>
<path d="M128.296 15.3228C127.739 14.714 127.077 14.2269 126.307 13.8647C125.536 13.5026 124.706 13.3223 123.821 13.3223H119.646C119.22 13.3223 118.856 13.4725 118.554 13.7746C118.252 14.0767 118.102 14.4404 118.102 14.8658V25.0978C118.102 25.5232 118.252 25.8869 118.554 26.189C118.856 26.491 119.22 26.6413 119.646 26.6413H123.821C124.711 26.6413 125.536 26.4626 126.307 26.0988C127.077 25.7351 127.738 25.2543 128.296 24.6407C128.853 24.0319 129.291 23.325 129.612 22.5169C129.93 21.7135 130.091 20.8642 130.091 19.9755C130.091 19.0867 129.93 18.2406 129.612 17.4341C129.291 16.6307 128.853 15.9206 128.296 15.3102V15.3228ZM126.707 21.443C126.523 21.8922 126.273 22.2923 125.952 22.6323C125.631 22.9755 125.257 23.2491 124.823 23.4515C124.39 23.6539 123.927 23.7535 123.428 23.7535H121.208V16.2053H123.428C123.936 16.2053 124.407 16.3097 124.842 16.5153C125.276 16.7208 125.65 17.0008 125.971 17.3487C126.292 17.6998 126.539 18.0999 126.719 18.5569C126.895 19.0124 126.985 19.4947 126.985 20.0039C126.985 20.5132 126.892 20.9939 126.708 21.443H126.707Z" fill="white"/>
<path d="M133.918 15.9805C133.918 15.9284 133.915 15.8841 133.915 15.8382V15.6959C133.915 15.5994 133.882 15.4982 133.811 15.397C133.74 15.2958 133.632 15.2325 133.479 15.2104C133.599 15.1914 133.692 15.1582 133.759 15.1171C133.885 15.0348 133.945 14.9083 133.945 14.7359C133.945 14.4924 133.844 14.3279 133.646 14.2457C133.534 14.2014 133.358 14.1745 133.12 14.1745H132.443V16.1039H132.783V15.3448H133.052C133.23 15.3448 133.358 15.3669 133.43 15.4081C133.55 15.4792 133.613 15.6247 133.613 15.8493V16.0027L133.621 16.0659C133.621 16.0659 133.621 16.0802 133.624 16.0881C133.624 16.096 133.624 16.0991 133.627 16.1071H133.945L133.934 16.0849C133.934 16.0849 133.92 16.0359 133.92 15.9837V15.9805H133.918ZM133.414 15.0649C133.343 15.0949 133.235 15.1092 133.088 15.1092H132.781V14.4102H133.072C133.264 14.4102 133.398 14.4323 133.483 14.4813C133.569 14.5304 133.61 14.6237 133.61 14.766C133.61 14.9162 133.542 15.0159 133.412 15.068V15.0649H133.414Z" fill="white"/>
<path d="M133.151 13.3933C132.669 13.3933 132.255 13.5656 131.915 13.9057C131.575 14.2457 131.399 14.66 131.399 15.1471C131.399 15.6342 131.567 16.0517 131.907 16.3964C132.247 16.7396 132.661 16.912 133.148 16.912C133.635 16.912 134.05 16.7396 134.393 16.3964C134.736 16.0533 134.908 15.6373 134.908 15.1471C134.908 14.6568 134.736 14.2504 134.393 13.9057C134.05 13.5656 133.634 13.3933 133.148 13.3933H133.151ZM134.22 16.2272C133.925 16.523 133.57 16.6716 133.151 16.6716C132.732 16.6716 132.373 16.5214 132.082 16.2272C131.791 15.9315 131.644 15.5725 131.644 15.1503C131.644 14.728 131.79 14.3769 132.085 14.0812C132.381 13.7855 132.735 13.6368 133.154 13.6368C133.573 13.6368 133.928 13.787 134.223 14.0812C134.519 14.3769 134.665 14.7312 134.665 15.1503C134.665 15.5693 134.519 15.9315 134.223 16.2272H134.22Z" fill="white"/>
<path d="M142.815 27.5158C142.069 27.5158 141.36 27.3735 140.712 27.092C140.073 26.8184 139.501 26.4309 139.01 25.9423C138.528 25.4599 138.141 24.8874 137.861 24.2406C137.579 23.597 137.437 22.8885 137.437 22.1373C137.437 21.3861 137.608 20.6776 137.945 20.0719C138.183 19.6402 138.452 19.2622 138.743 18.9412C138.645 18.8131 138.555 18.6707 138.476 18.5142C138.376 18.3244 138.294 18.1077 138.224 17.8563C138.153 17.6048 138.118 17.3202 138.118 17.0118C138.118 16.3871 138.248 15.7973 138.504 15.2596C138.756 14.7329 139.104 14.2632 139.54 13.8647C139.974 13.4741 140.476 13.1657 141.038 12.9475C141.601 12.7292 142.2 12.6201 142.822 12.6201C143.443 12.6201 144.047 12.7308 144.606 12.9475C145.175 13.1689 145.679 13.4788 146.103 13.8647C146.535 14.2553 146.883 14.725 147.139 15.2596C147.395 15.8131 147.525 16.3998 147.525 17.0118C147.525 17.3154 147.489 17.5985 147.417 17.8563C147.351 18.0951 147.267 18.3165 147.166 18.5142C147.074 18.6866 146.986 18.8273 146.896 18.9443C147.185 19.2654 147.452 19.6418 147.689 20.0703C148.026 20.6823 148.197 21.3766 148.197 22.1357C148.197 22.8948 148.055 23.5891 147.773 24.239C147.492 24.8858 147.106 25.4583 146.623 25.9407C146.133 26.4278 145.561 26.8136 144.922 27.0904C144.267 27.3719 143.56 27.5142 142.819 27.5142L142.815 27.5158ZM142.819 13.569C142.308 13.569 141.836 13.6544 141.378 13.8331C140.926 14.0102 140.521 14.2569 140.174 14.5685C139.831 14.8816 139.556 15.2532 139.358 15.6692C139.164 16.0787 139.064 16.531 139.064 17.0134C139.064 17.2348 139.088 17.4325 139.137 17.6033C139.189 17.7915 139.248 17.9464 139.317 18.0809C139.38 18.2058 139.45 18.3133 139.524 18.4019C139.613 18.5094 139.687 18.598 139.746 18.6676L140.042 19.0187L139.701 19.3255C139.361 19.6338 139.048 20.0403 138.775 20.5353C138.517 21.0002 138.386 21.5395 138.386 22.1404C138.386 22.7414 138.501 23.3392 138.73 23.8642C138.965 24.4019 139.284 24.8764 139.681 25.2733C140.084 25.6766 140.559 25.996 141.087 26.2237C141.618 26.4546 142.199 26.5701 142.814 26.5701C143.429 26.5701 144.006 26.4531 144.541 26.2237C145.071 25.9944 145.545 25.6734 145.95 25.2717C146.351 24.87 146.663 24.4082 146.899 23.8642C147.128 23.336 147.245 22.7556 147.245 22.1389C147.245 21.5221 147.114 21.0018 146.856 20.5321C146.584 20.0419 146.272 19.6354 145.932 19.3255L145.607 19.0282L145.891 18.666C145.95 18.5964 146.024 18.5079 146.113 18.4003C146.179 18.3197 146.247 18.2137 146.321 18.0745C146.389 17.9417 146.451 17.7804 146.499 17.6048C146.548 17.4293 146.571 17.2316 146.571 17.0134C146.571 16.5342 146.475 16.0946 146.276 15.666C146.076 15.2469 145.801 14.8768 145.461 14.57C145.123 14.2601 144.718 14.0134 144.258 13.8347C143.81 13.6607 143.326 13.5722 142.819 13.5722V13.569ZM142.822 24.3545C142.202 24.3545 141.67 24.1378 141.24 23.7124C140.807 23.2838 140.587 22.7525 140.587 22.1341C140.587 21.5158 140.805 20.9812 141.239 20.5495C141.67 20.1178 142.203 19.8979 142.823 19.8979C143.125 19.8979 143.415 19.9565 143.684 20.0703C143.948 20.1842 144.185 20.3439 144.389 20.5479C144.594 20.7535 144.756 20.9971 144.87 21.2706C144.984 21.5442 145.04 21.8352 145.04 22.1357C145.04 22.4362 144.988 22.705 144.879 22.9739L144.87 22.9976C144.759 23.2664 144.594 23.5068 144.386 23.7124C144.185 23.9085 143.948 24.0667 143.684 24.1789C143.416 24.2944 143.127 24.3513 142.823 24.3513L142.822 24.3545ZM142.822 20.8484C142.458 20.8484 142.159 20.9702 141.909 21.2216C141.659 21.4731 141.536 21.772 141.536 22.1341C141.536 22.4963 141.655 22.7873 141.908 23.0371C142.157 23.2838 142.456 23.404 142.823 23.404C142.999 23.404 143.159 23.3724 143.309 23.3076C143.465 23.2411 143.605 23.1478 143.722 23.034C143.837 22.9217 143.922 22.7967 143.986 22.6513L143.994 22.6307C144.06 22.471 144.09 22.3144 144.09 22.1373C144.09 21.9602 144.058 21.7957 143.992 21.6344C143.927 21.4762 143.834 21.3371 143.717 21.22C143.598 21.1014 143.461 21.0081 143.309 20.9433C143.157 20.8784 142.999 20.8468 142.823 20.8468L142.822 20.8484ZM142.819 18.753C142.344 18.753 141.917 18.5774 141.583 18.2438C141.25 17.9101 141.074 17.4831 141.074 17.0086C141.074 16.5342 141.25 16.1072 141.583 15.7735C141.917 15.4398 142.343 15.2643 142.819 15.2643C143.295 15.2643 143.72 15.4398 144.054 15.7735C144.387 16.1072 144.563 16.5342 144.563 17.0086C144.563 17.4831 144.387 17.9101 144.054 18.2438C143.72 18.5774 143.293 18.753 142.819 18.753ZM142.819 16.2068C142.586 16.2068 142.411 16.278 142.251 16.4393C142.089 16.6006 142.018 16.7762 142.018 17.0086C142.018 17.2411 142.091 17.4167 142.251 17.578C142.412 17.7393 142.588 17.8104 142.82 17.8104C143.053 17.8104 143.228 17.7393 143.389 17.578C143.551 17.4167 143.622 17.2411 143.622 17.0086C143.622 16.7762 143.549 16.6006 143.389 16.4393C143.228 16.278 143.053 16.2068 142.822 16.2068H142.819Z" fill="white"/>
<defs>
<linearGradient id="paint0_linear_9648_354216" x1="3.55955" y1="36.458" x2="36.0628" y2="3.95477" gradientUnits="userSpaceOnUse">
<stop stop-color="#F9E100"/>
<stop offset="0.45" stop-color="#FF282C"/>
<stop offset="0.66" stop-color="#D95992"/>
<stop offset="0.92" stop-color="#55ACEE"/>
</linearGradient>
<linearGradient id="paint1_linear_9648_354216" x1="3.55955" y1="36.458" x2="36.0628" y2="3.95477" gradientUnits="userSpaceOnUse">
<stop stop-color="#F9E100"/>
<stop offset="0.45" stop-color="#FF282C"/>
<stop offset="0.66" stop-color="#D95992"/>
<stop offset="0.92" stop-color="#55ACEE"/>
</linearGradient>
<linearGradient id="paint2_linear_9648_354216" x1="3.55955" y1="36.458" x2="36.0628" y2="3.95477" gradientUnits="userSpaceOnUse">
<stop stop-color="#F9E100"/>
<stop offset="0.45" stop-color="#FF282C"/>
<stop offset="0.66" stop-color="#D95992"/>
<stop offset="0.92" stop-color="#55ACEE"/>
</linearGradient>
<linearGradient id="paint3_linear_9648_354216" x1="3.55955" y1="36.458" x2="36.0628" y2="3.95477" gradientUnits="userSpaceOnUse">
<stop stop-color="#F9E100"/>
<stop offset="0.45" stop-color="#FF282C"/>
<stop offset="0.66" stop-color="#D95992"/>
<stop offset="0.92" stop-color="#55ACEE"/>
</linearGradient>
</defs>
</svg>
