<svg id="Layer_1" data-name="Layer 1" xmlns="http://www.w3.org/2000/svg" viewBox="0 0 132 35"><defs><style>.cls-1{fill:#050708;}.cls-2{fill:#30baa3;}.cls-3{fill:#f79820;}.cls-4{fill:#ee3e58;}.cls-5{fill:#3b8bca;}</style></defs><title>xroad7_logo</title><path class="cls-1" d="M63.12,23.22a6.76,6.76,0,0,1-2.32,2,7.26,7.26,0,0,1-3.45.77,8.11,8.11,0,0,1-3.19-.6,7.42,7.42,0,0,1-2.53-1.68A7.5,7.5,0,0,1,50,21.17a8.75,8.75,0,0,1-.6-3.28,8.48,8.48,0,0,1,.61-3.3A7.45,7.45,0,0,1,51.69,12a7.83,7.83,0,0,1,2.55-1.65,8.36,8.36,0,0,1,3.2-.58A8.09,8.09,0,0,1,59,10a7.3,7.3,0,0,1,1.53.46,6.2,6.2,0,0,1,1.32.76,6,6,0,0,1,1,1l-1.67,1.3a4,4,0,0,0-1.57-1.29,5,5,0,0,0-2.2-.52,5.73,5.73,0,0,0-2.38.49,5.55,5.55,0,0,0-1.81,1.34,6.23,6.23,0,0,0-1.15,2,6.88,6.88,0,0,0-.4,2.38,7.52,7.52,0,0,0,.4,2.44,6,6,0,0,0,1.14,2A5.31,5.31,0,0,0,55,23.63a5.67,5.67,0,0,0,2.37.47,5.26,5.26,0,0,0,2.34-.52,4.53,4.53,0,0,0,1.73-1.52Z"/><path class="cls-1" d="M71.79,18.94a2.05,2.05,0,0,0-.69-1.71,2.74,2.74,0,0,0-1.81-.56,4.07,4.07,0,0,0-1.61.33,4.38,4.38,0,0,0-1.27.86l-1.06-1.31a5.21,5.21,0,0,1,1.82-1.13A6.8,6.8,0,0,1,69.49,15a5.13,5.13,0,0,1,1.9.32,3.44,3.44,0,0,1,2.08,2.15,5.08,5.08,0,0,1,.25,1.59v4.52c0,.35,0,.72,0,1.11a7.32,7.32,0,0,0,.12.94H72.05a6.1,6.1,0,0,1-.18-1.47h-.05a4,4,0,0,1-1.41,1.29,4.31,4.31,0,0,1-2,.46,5.22,5.22,0,0,1-1.25-.16A3.45,3.45,0,0,1,66,25.22a2.88,2.88,0,0,1-1.24-2.48,2.66,2.66,0,0,1,.62-1.87A3.89,3.89,0,0,1,67,19.82a9.17,9.17,0,0,1,2.27-.47c.83-.07,1.69-.11,2.54-.11v-.3ZM71.3,20.7c-.5,0-1,0-1.55.07A8,8,0,0,0,68.3,21a2.66,2.66,0,0,0-1.08.59,1.41,1.41,0,0,0-.43,1.05,1.46,1.46,0,0,0,.19.76,1.56,1.56,0,0,0,.49.5,1.92,1.92,0,0,0,.66.27,3,3,0,0,0,.74.07A2.71,2.71,0,0,0,71,23.41a3.12,3.12,0,0,0,.76-2.17V20.7Z"/><path class="cls-1" d="M79.75,15.58a3.59,3.59,0,0,1,2-.58,3.65,3.65,0,0,1,1.85.48,3.19,3.19,0,0,1,1.29,1.59,3.58,3.58,0,0,1,1.43-1.53,3.86,3.86,0,0,1,2-.54,4.16,4.16,0,0,1,1.7.33,3.34,3.34,0,0,1,1.17.91,4,4,0,0,1,.71,1.33,5.64,5.64,0,0,1,.22,1.64v6.41h-2V19.88a8,8,0,0,0-.1-1.2,3.47,3.47,0,0,0-.36-1A2.1,2.1,0,0,0,89,17a2.17,2.17,0,0,0-1.09-.26,2.21,2.21,0,0,0-1.18.3,2.42,2.42,0,0,0-.8.76,3.53,3.53,0,0,0-.45,1.06A4.94,4.94,0,0,0,85.33,20v5.58h-2V19.47a4.63,4.63,0,0,0-.11-1.12,2.25,2.25,0,0,0-.36-.86,1.84,1.84,0,0,0-.66-.58,2.5,2.5,0,0,0-1-.21,2.3,2.3,0,0,0-1.85.93,4,4,0,0,0-.73,2.48v5.5h-2V17.5c0-.27,0-.63,0-1.08s0-.81-.06-1.16h1.91c0,.26,0,.56.06.89a7.75,7.75,0,0,1,0,.82h.06A3.28,3.28,0,0,1,79.75,15.58Z"/><path class="cls-1" d="M95.3,10.18h5a11,11,0,0,1,3,.43A8.14,8.14,0,0,1,106.07,12a7,7,0,0,1,2,2.41,7.5,7.5,0,0,1,.77,3.52,7.26,7.26,0,0,1-.77,3.43,7.13,7.13,0,0,1-2,2.39,8.32,8.32,0,0,1-2.74,1.42,10,10,0,0,1-3,.47h-5Zm2,13.55h2.57a8.7,8.7,0,0,0,2.64-.39,6.2,6.2,0,0,0,2.1-1.13A5.08,5.08,0,0,0,106,20.37a5.83,5.83,0,0,0,.49-2.47,5.9,5.9,0,0,0-.49-2.52,4.93,4.93,0,0,0-1.37-1.82,6.55,6.55,0,0,0-2.1-1.12,9,9,0,0,0-2.64-.39H97.29Z"/><path class="cls-1" d="M116.79,15.94l3.88-5.76h2.66l-5.2,7.31,5.92,8.13h-2.88l-4.48-6.48-4.37,6.49H109.5l5.83-8.17-5.25-7.26h2.8Z"/><path class="cls-2" d="M21.84,10.6c.22-.22.42-.46.64-.68L31.82.64a.51.51,0,0,1,.43-.19c.61,0,1.21,0,1.82,0,.17,0,.25,0,.25.23,0,.63,0,1.25,0,1.87a.53.53,0,0,1-.18.37l-9.77,9.69a2.32,2.32,0,0,1-.3.22.41.41,0,0,1,.05.09H34c.26,0,.33.06.33.33,0,.89,0,1.78,0,2.67,0,.19-.06.24-.24.24h-14a1.61,1.61,0,0,1-1.61-1.73V.8c0-.34,0-.34.35-.34.88,0,1.75,0,2.63,0,.24,0,.29.07.29.3q0,4.74,0,9.5v.31Z"/><path class="cls-3" d="M10.16,22.08H.3C.06,22.09,0,22,0,21.8c0-.9,0-1.8,0-2.7,0-.18,0-.25.24-.25q7,0,13.94,0a1.61,1.61,0,0,1,1.62,1.59v.05c0,4.6,0,9.21,0,13.8,0,.21-.05.25-.26.25H12.81c-.22,0-.27-.06-.27-.26q0-4.77,0-9.53v-.31c-.12,0-.17.1-.23.16L4.58,32.3,2.47,34.39a.44.44,0,0,1-.35.15H.25c-.16,0-.24,0-.23-.21C0,33.69,0,33,0,32.4a.43.43,0,0,1,.13-.3L10,22.34a2.49,2.49,0,0,1,.24-.17A.57.57,0,0,1,10.16,22.08Z"/><path class="cls-4" d="M10.24,12.92,8.86,11.55.15,2.9A.41.41,0,0,1,0,2.57c0-.63,0-1.26,0-1.9C0,.48.06.45.23.46H2.1a.43.43,0,0,1,.34.15l9.61,9.54.41.45.07,0V.75c0-.26.07-.31.3-.3.9,0,1.8,0,2.7,0,.19,0,.26,0,.26.24q0,6.9,0,13.8a1.6,1.6,0,0,1-1.63,1.65H.25c-.22,0-.24-.08-.24-.27,0-.9,0-1.8,0-2.7,0-.23.07-.27.28-.27h10Z"/><path class="cls-5" d="M21.8,24.42c-.08.12,0,.22,0,.32v9.48c0,.26-.05.33-.32.32H18.79c-.19,0-.28,0-.28-.25q0-6.93,0-13.83a1.57,1.57,0,0,1,1.53-1.6h14c.19,0,.24.06.24.25,0,.9,0,1.8,0,2.7,0,.24-.08.29-.3.29h-9.9c.05.14.16.2.24.29L34.1,32a.63.63,0,0,1,.22.51c0,.6,0,1.18,0,1.77,0,.17,0,.23-.22.22H32.23a.45.45,0,0,1-.38-.15l-4.63-4.6L22,24.58A1.29,1.29,0,0,0,21.8,24.42Z"/></svg>