<svg width="144" height="195" viewBox="0 0 144 195" fill="none" xmlns="http://www.w3.org/2000/svg">
<path fill-rule="evenodd" clip-rule="evenodd" d="M1.42187 176.99C1.11397 176.579 0.960937 176.119 0.960937 175.604C0.960937 175.194 1.03746 174.843 1.19232 174.55C1.34535 174.257 1.54394 174.011 1.78807 173.816C2.0322 173.62 2.29091 173.479 2.56055 173.389C2.83019 173.3 3.09436 173.257 3.3476 173.257C3.70834 173.257 4.05085 173.335 4.37697 173.495C4.70309 173.656 4.98366 173.887 5.21868 174.19L9.01366 179.097L12.7813 174.19C13.0163 173.887 13.3024 173.656 13.6376 173.495C13.9728 173.335 14.319 173.257 14.6797 173.257C14.8965 173.257 15.1407 173.294 15.4139 173.375C15.6836 173.456 15.9423 173.585 16.1864 173.762C16.4306 173.939 16.6346 174.181 16.7949 174.482C16.9589 174.787 17.0391 175.16 17.0391 175.604C17.0391 175.852 17.0044 176.095 16.9316 176.335C16.8605 176.576 16.7421 176.794 16.5781 176.99L11.9688 182.963L17.0391 189.524C17.2012 189.721 17.3196 189.939 17.3925 190.176C17.4654 190.418 17.5 190.662 17.5 190.913C17.5 191.303 17.4271 191.645 17.2832 191.938C17.1393 192.232 16.9534 192.477 16.7275 192.671C16.5016 192.868 16.2484 193.013 15.9678 193.111C15.689 193.21 15.4139 193.257 15.1407 193.257C14.7799 193.257 14.4319 193.181 14.0967 193.031C13.7615 192.88 13.4791 192.654 13.2441 192.35L9.01366 186.83L4.75592 192.35C4.52272 192.654 4.23851 192.88 3.90328 193.031C3.56987 193.181 3.22189 193.257 2.85934 193.257C2.46035 193.257 2.11419 193.181 1.8154 193.031C1.51843 192.88 1.2743 192.694 1.083 192.472C0.893527 192.249 0.749598 192 0.647573 191.726C0.549191 191.448 0.5 191.178 0.5 190.913C0.5 190.395 0.65486 189.934 0.960937 189.524L6.03124 182.963L1.42187 176.99Z" fill="white"/>
<path fill-rule="evenodd" clip-rule="evenodd" d="M21.9133 184.257C21.5177 184.257 21.1842 184.112 20.9095 183.82C20.6365 183.531 20.5 183.175 20.5 182.758C20.5 182.34 20.6365 181.984 20.9095 181.695C21.1842 181.403 21.5177 181.257 21.9133 181.257H28.0832C28.4789 181.257 28.8123 181.403 29.0871 181.695C29.3618 181.984 29.5 182.34 29.5 182.758C29.5 183.175 29.3618 183.531 29.0871 183.82C28.8123 184.112 28.4789 184.257 28.0832 184.257H21.9133Z" fill="white"/>
<path fill-rule="evenodd" clip-rule="evenodd" d="M38.2374 177.577V183.257H41.0537C41.4521 183.257 41.8214 183.181 42.1634 183.031C42.5073 182.879 42.8093 182.676 43.0694 182.416C43.3314 182.16 43.5406 181.863 43.6935 181.524C43.8463 181.187 43.9245 180.822 43.9245 180.431C43.9245 180.039 43.8463 179.669 43.6935 179.324C43.5406 178.976 43.3314 178.673 43.0694 178.417C42.8093 178.159 42.5073 177.955 42.1634 177.804C41.8214 177.652 41.4521 177.577 41.0537 177.577H38.2374ZM47.6868 189.282C47.9579 189.496 48.1598 189.754 48.2962 190.056C48.4327 190.359 48.5 190.669 48.5 190.99C48.5 191.239 48.4491 191.492 48.3508 191.748C48.2526 192.008 48.1089 192.251 47.9178 192.483C47.7286 192.714 47.4885 192.9 47.201 193.043C46.9118 193.185 46.577 193.257 46.1986 193.257C45.9294 193.257 45.6565 193.217 45.3872 193.137C45.1161 193.058 44.8705 192.92 44.654 192.723L38.5085 187.525H38.2374V190.909C38.2374 191.569 38.0082 192.122 37.5479 192.576C37.0876 193.029 36.5237 193.257 35.8542 193.257C35.2065 193.257 34.6498 193.029 34.1913 192.576C33.7292 192.122 33.5 191.569 33.5 190.909V175.577C33.5 174.936 33.7292 174.391 34.1913 173.937C34.6498 173.482 35.2065 173.257 35.8542 173.257H41.1082C42.1016 173.257 43.0403 173.443 43.9245 173.817C44.8069 174.19 45.5837 174.704 46.2514 175.364C46.919 176.021 47.4448 176.786 47.825 177.657C48.2035 178.528 48.3908 179.453 48.3908 180.431C48.3908 181.816 48.0033 183.004 47.2265 183.989C46.4515 184.977 45.3235 185.729 43.8426 186.244L47.6868 189.282Z" fill="white"/>
<path fill-rule="evenodd" clip-rule="evenodd" d="M56.4419 184.382C56.7246 185.044 57.1164 185.624 57.6158 186.123C58.1152 186.621 58.6944 187.013 59.3585 187.297C60.0192 187.579 60.7301 187.721 61.4844 187.721C62.2439 187.721 62.9583 187.579 63.6294 187.297C64.2987 187.013 64.883 186.621 65.3824 186.123C65.8801 185.624 66.2737 185.044 66.5564 184.382C66.8407 183.723 66.9829 183.013 66.9829 182.256C66.9829 181.501 66.8407 180.792 66.5564 180.131C66.2737 179.469 65.8801 178.889 65.3824 178.39C64.883 177.892 64.2987 177.497 63.6294 177.204C62.9583 176.913 62.2439 176.768 61.4844 176.768C60.7301 176.768 60.0192 176.913 59.3585 177.204C58.6944 177.497 58.1152 177.892 57.6158 178.39C57.1164 178.889 56.7246 179.469 56.4419 180.131C56.1575 180.792 56.0153 181.501 56.0153 182.256C56.0153 183.013 56.1575 183.723 56.4419 184.382ZM57.602 191.47C56.3899 190.946 55.3304 190.232 54.4287 189.33C53.5236 188.429 52.8109 187.37 52.2872 186.149C51.7618 184.928 51.5 183.631 51.5 182.256C51.5 180.882 51.7618 179.584 52.2872 178.364C52.8109 177.145 53.5236 176.084 54.4287 175.183C55.3304 174.279 56.3899 173.568 57.602 173.043C58.814 172.518 60.1093 172.257 61.4844 172.257C62.8612 172.257 64.1617 172.518 65.3824 173.043C66.6049 173.568 67.6679 174.279 68.5695 175.183C69.4729 176.084 70.1874 177.145 70.711 178.364C71.2364 179.584 71.5 180.882 71.5 182.256C71.5 183.631 71.2364 184.928 70.711 186.149C70.1874 187.37 69.4729 188.429 68.5695 189.33C67.6679 190.232 66.6049 190.946 65.3824 191.47C64.1617 191.995 62.8612 192.257 61.4844 192.257C60.1093 192.257 58.814 191.995 57.602 191.47Z" fill="white"/>
<path fill-rule="evenodd" clip-rule="evenodd" d="M81.6117 184.76H86.4947L84.0784 179.02L81.6117 184.76ZM88.132 188.692H79.8933L78.9286 190.921C78.7483 191.339 78.4616 191.668 78.0685 191.904C77.6754 192.139 77.2552 192.257 76.8063 192.257C76.5935 192.257 76.3519 192.218 76.085 192.139C75.8145 192.061 75.5639 191.929 75.3313 191.746C75.1005 191.563 74.9021 191.328 74.7398 191.04C74.5811 190.751 74.5 190.395 74.5 189.977C74.5 189.68 74.5721 189.375 74.7146 189.058L81.8533 173.673C82.3005 172.73 83.0434 172.257 84.0784 172.257C85.1531 172.257 85.896 172.73 86.3072 173.673L93.3107 189.058C93.4369 189.356 93.5 189.662 93.5 189.977C93.5 190.624 93.2746 191.166 92.8274 191.603C92.382 192.04 91.8339 192.257 91.1901 192.257C90.743 192.257 90.3228 192.139 89.9279 191.904C89.5366 191.668 89.2499 191.339 89.0732 190.921L88.132 188.692Z" fill="white"/>
<path fill-rule="evenodd" clip-rule="evenodd" d="M102.167 177.577V188.91H105.5C106.247 188.91 106.944 188.759 107.593 188.456C108.244 188.154 108.808 187.745 109.289 187.231C109.767 186.717 110.145 186.12 110.421 185.444C110.697 184.769 110.835 184.049 110.835 183.285C110.835 182.52 110.703 181.794 110.434 181.112C110.168 180.426 109.796 179.822 109.315 179.297C108.835 178.774 108.271 178.354 107.622 178.044C106.971 177.732 106.265 177.577 105.5 177.577H102.167ZM98.1792 192.576C97.7258 192.122 97.5 191.576 97.5 190.936V175.577C97.5 174.936 97.7258 174.391 98.1792 173.937C98.6326 173.482 99.1792 173.257 99.819 173.257H106.088C107.421 173.257 108.665 173.527 109.821 174.07C110.977 174.613 111.973 175.34 112.808 176.256C113.643 177.172 114.301 178.234 114.783 179.444C115.263 180.653 115.5 181.923 115.5 183.257C115.5 184.59 115.263 185.86 114.783 187.07C114.301 188.279 113.643 189.34 112.808 190.255C111.973 191.173 110.977 191.9 109.821 192.443C108.665 192.986 107.421 193.257 106.088 193.257H99.819C99.1792 193.257 98.6326 193.029 98.1792 192.576Z" fill="white"/>
<path fill-rule="evenodd" clip-rule="evenodd" d="M120.468 173.801C120.347 173.733 120.15 173.699 119.883 173.699H119.468V174.692H119.907C120.112 174.692 120.266 174.674 120.367 174.631C120.558 174.556 120.652 174.414 120.652 174.202C120.652 174.003 120.59 173.87 120.468 173.801ZM119.946 173.368C120.289 173.368 120.537 173.403 120.696 173.468C120.981 173.586 121.123 173.818 121.123 174.162C121.123 174.407 121.032 174.588 120.854 174.704C120.76 174.764 120.628 174.81 120.456 174.836C120.671 174.872 120.83 174.961 120.929 175.106C121.027 175.252 121.077 175.394 121.077 175.531V175.732C121.077 175.796 121.08 175.862 121.083 175.936C121.089 176.008 121.097 176.056 121.109 176.078L121.126 176.114H120.672C120.669 176.104 120.667 176.095 120.665 176.085C120.662 176.076 120.66 176.066 120.659 176.054L120.648 175.967V175.75C120.648 175.433 120.563 175.223 120.39 175.122C120.289 175.062 120.107 175.035 119.852 175.035H119.468V176.114H118.985V173.368H119.946ZM118.473 173.23C118.055 173.649 117.846 174.157 117.846 174.751C117.846 175.349 118.055 175.861 118.47 176.282C118.887 176.704 119.396 176.914 119.994 176.914C120.592 176.914 121.099 176.704 121.517 176.282C121.935 175.861 122.145 175.349 122.145 174.751C122.145 174.157 121.935 173.649 121.517 173.23C121.097 172.807 120.588 172.597 119.994 172.597C119.401 172.597 118.894 172.807 118.473 173.23ZM121.767 176.521C121.279 177.012 120.688 177.257 119.994 177.257C119.3 177.257 118.711 177.012 118.225 176.521C117.74 176.034 117.5 175.442 117.5 174.747C117.5 174.06 117.743 173.473 118.231 172.984C118.718 172.498 119.305 172.257 119.994 172.257C120.688 172.257 121.279 172.498 121.767 172.984C122.255 173.471 122.5 174.056 122.5 174.747C122.5 175.44 122.255 176.032 121.767 176.521Z" fill="white"/>
<path fill-rule="evenodd" clip-rule="evenodd" d="M139.469 174.114C139.834 174.116 140.116 174.233 140.361 174.485C140.608 174.737 140.723 175.024 140.719 175.393C140.719 175.491 140.712 175.584 140.702 175.669C140.7 175.676 140.693 175.716 140.643 175.818L133.782 191.621C133.661 191.9 133.498 192.091 133.267 192.226C133.024 192.372 132.769 192.442 132.478 192.446C132.354 192.444 132.195 192.417 132.017 192.363C131.852 192.311 131.693 192.224 131.538 192.109C131.407 192.008 131.292 191.868 131.196 191.689C131.111 191.527 131.068 191.307 131.07 191.03C131.07 190.805 131.107 190.619 131.185 190.451L137.133 176.651L129.531 176.615C129.167 176.613 128.884 176.494 128.637 176.242C128.392 175.993 128.281 175.703 128.282 175.334C128.282 174.966 128.398 174.68 128.648 174.429C128.894 174.183 129.176 174.067 129.534 174.067L139.469 174.114ZM141.627 173.213C141.042 172.613 140.32 172.309 139.48 172.303L129.534 172.257C128.697 172.257 127.977 172.556 127.392 173.145C126.803 173.738 126.504 174.473 126.5 175.327C126.495 176.184 126.789 176.921 127.373 177.517C127.954 178.116 128.678 178.42 129.522 178.425L134.415 178.447L129.565 189.7C129.384 190.088 129.29 190.533 129.288 191.024C129.284 191.606 129.401 192.118 129.628 192.547C129.848 192.959 130.13 193.3 130.471 193.558C130.79 193.799 131.134 193.979 131.498 194.091C131.843 194.201 132.17 194.257 132.469 194.257H132.484C133.079 194.257 133.645 194.1 134.167 193.79C134.718 193.464 135.137 192.981 135.412 192.356L142.25 176.599C142.36 176.373 142.431 176.148 142.463 175.932C142.487 175.766 142.498 175.588 142.5 175.4C142.503 174.546 142.211 173.811 141.627 173.213Z" fill="white"/>
<path fill-rule="evenodd" clip-rule="evenodd" d="M72.0128 82.6537H72.0075C69.0347 82.6554 66.2441 83.8142 64.1444 85.9173L25.8325 124.274C21.4992 128.611 21.5028 135.669 25.8414 140.005C27.9411 142.103 30.7335 143.257 33.7027 143.257H33.7098C36.6808 143.255 39.4714 142.098 41.5711 139.995L72.0218 109.511L102.508 139.961C104.61 142.057 107.398 143.214 110.368 143.214H110.373C113.346 143.21 116.14 142.053 118.24 139.95C122.571 135.61 122.568 128.552 118.231 124.219L79.9812 86.0173L79.8616 85.8959C77.7637 83.807 74.9767 82.6537 72.0128 82.6537ZM11.6186 22.34C8.76725 22.34 5.91591 23.4255 3.7466 25.5965C-0.58666 29.9385 -0.581303 36.9944 3.75731 41.3275L34.2419 71.7753L3.79123 102.261C-0.540238 106.601 -0.536667 113.657 3.80195 117.992C5.90162 120.09 8.69405 121.245 11.6632 121.245H11.6704C14.6396 121.243 17.4338 120.084 19.5317 117.983L57.7311 79.7399L57.8436 79.631V79.6292C62.1751 75.289 62.1715 68.2331 57.8365 63.8982L19.4781 25.5876C17.3106 23.4219 14.4664 22.34 11.6186 22.34ZM132.337 22.2703C129.486 22.2703 126.637 23.3558 124.467 25.5251L86.2642 63.7733L86.141 63.8911C81.822 68.2349 81.831 75.28 86.1642 79.6096L124.521 117.92C126.622 120.02 129.411 121.173 132.382 121.173H132.387C135.358 121.171 138.153 120.015 140.254 117.911C144.586 113.569 144.582 106.513 140.243 102.182L109.759 71.7325L140.208 41.2471C144.541 36.9087 144.537 29.8528 140.197 25.5161C138.031 23.3523 135.183 22.2703 132.337 22.2703ZM110.298 0.256592C107.448 0.256592 104.597 1.3421 102.428 3.51312L71.9771 33.9967L41.4908 3.54705C39.3232 1.38317 36.479 0.301226 33.6331 0.301226C30.7817 0.301226 27.9304 1.38674 25.7611 3.55776C21.4278 7.8998 21.4314 14.9556 25.77 19.2887L64.0159 57.4869L64.1248 57.5994C66.2262 59.699 69.0169 60.8524 71.9861 60.8524H71.9932C74.966 60.8506 77.7602 59.6919 79.8563 57.5905L118.168 19.2352C120.268 17.1338 121.425 14.3379 121.423 11.367C121.421 8.39614 120.261 5.6038 118.159 3.50241C115.992 1.33853 113.146 0.256592 110.298 0.256592ZM72.0128 85.7495C74.15 85.7495 76.1622 86.5797 77.6495 88.0598L77.7923 88.2062L116.042 126.41C119.173 129.538 119.175 134.63 116.049 137.763C114.533 139.281 112.519 140.116 110.366 140.118C108.225 140.118 106.211 139.284 104.697 137.77L74.2089 107.32L72.02 105.133L69.831 107.322L39.3822 137.809C37.8663 139.325 35.8523 140.161 33.7027 140.163C31.5602 140.163 29.5444 139.329 28.0286 137.815C24.8969 134.687 24.8933 129.593 28.0214 126.462L66.3351 88.1044C67.8492 86.5868 69.865 85.7513 72.0075 85.7495H72.0128ZM11.6204 25.4358H11.6186C13.7647 25.4358 15.7787 26.2678 17.2909 27.7782L55.6475 66.0871C58.7774 69.2169 58.7809 74.3106 55.6832 77.4136L55.5404 77.5528L17.3427 115.794C15.8269 117.311 13.8111 118.149 11.6632 118.149C9.51892 118.149 7.50495 117.315 5.98911 115.801C2.86102 112.673 2.85745 107.579 5.98197 104.45L36.4308 73.9642L38.6198 71.7736L36.429 69.5865L5.94269 39.1368C2.81281 36.0106 2.80924 30.9151 5.93555 27.7854C7.4496 26.2696 9.46893 25.4358 11.6204 25.4358ZM132.339 25.3662H132.337C134.484 25.3662 136.498 26.1964 138.01 27.7068C141.141 30.8366 141.145 35.9285 138.019 39.06L107.568 69.5436L105.379 71.7343L107.57 73.9214L138.056 104.371C141.186 107.497 141.19 112.593 138.063 115.722C136.549 117.24 134.532 118.077 132.382 118.079C130.238 118.079 128.224 117.244 126.71 115.73L88.3514 77.4189C85.2251 74.2963 85.2179 69.2097 88.305 66.105L88.4549 65.9586L126.656 27.7139C128.17 26.1999 130.188 25.3662 132.339 25.3662ZM110.298 3.35244C112.446 3.35244 114.458 4.18443 115.97 5.69486C117.49 7.20886 118.325 9.22456 118.325 11.3688C118.327 13.513 117.495 15.5287 115.977 17.0463L77.6637 55.4034C76.1515 56.921 74.1375 57.7565 71.9861 57.7583C69.8435 57.7583 67.8278 56.9228 66.3387 55.4373L66.2012 55.2963L27.9571 17.0981C24.8255 13.9701 24.8237 8.87819 27.9482 5.74663C29.4641 4.23085 31.4816 3.39708 33.633 3.39708C35.7774 3.39708 37.7931 4.22906 39.3054 5.73949L69.79 36.1874L71.9789 38.3745L74.1679 36.1856L104.617 5.70022C106.131 4.18621 108.148 3.35244 110.298 3.35244Z" fill="white"/>
</svg>
