<svg width="132" height="35" viewBox="0 0 132 35" fill="none" xmlns="http://www.w3.org/2000/svg">
<path fill-rule="evenodd" clip-rule="evenodd" d="M118.04 12.8179C117.964 12.777 117.843 12.7566 117.677 12.7566H117.421V13.355H117.692C117.819 13.355 117.914 13.3429 117.977 13.3181C118.094 13.2734 118.153 13.1873 118.153 13.06C118.153 12.9399 118.115 12.8592 118.04 12.8179ZM117.717 12.5578C117.927 12.5578 118.082 12.5777 118.18 12.6171C118.356 12.6881 118.444 12.8281 118.444 13.0356C118.444 13.1839 118.388 13.2923 118.278 13.3618C118.219 13.3988 118.137 13.426 118.032 13.442C118.165 13.4625 118.262 13.5164 118.324 13.6039C118.385 13.6914 118.416 13.7765 118.416 13.8601V13.9806C118.416 14.019 118.418 14.0599 118.421 14.1036C118.424 14.1469 118.428 14.1756 118.435 14.1892L118.446 14.2096H118.165C118.164 14.2047 118.163 14.1989 118.161 14.1936C118.16 14.1877 118.158 14.1819 118.157 14.1751L118.151 14.1221V13.9913C118.151 13.8003 118.097 13.6749 117.99 13.6136C117.927 13.5777 117.816 13.5602 117.657 13.5602H117.421V14.2096H117.122V12.5578H117.717ZM116.805 12.4737C116.547 12.727 116.418 13.0318 116.418 13.39C116.418 13.7507 116.546 14.0584 116.803 14.3122C117.062 14.5669 117.376 14.6933 117.746 14.6933C118.115 14.6933 118.43 14.5669 118.688 14.3122C118.947 14.0584 119.076 13.7507 119.076 13.39C119.076 13.0318 118.947 12.727 118.688 12.4737C118.428 12.22 118.114 12.0926 117.746 12.0926C117.379 12.0926 117.066 12.22 116.805 12.4737ZM118.842 14.4561C118.54 14.7511 118.175 14.8984 117.746 14.8984C117.317 14.8984 116.952 14.7511 116.652 14.4561C116.352 14.1625 116.202 13.8061 116.202 13.3881C116.202 12.9739 116.354 12.62 116.656 12.3259C116.957 12.0338 117.32 11.8875 117.746 11.8875C118.175 11.8875 118.54 12.0338 118.842 12.3259C119.144 12.6186 119.296 12.9725 119.296 13.3881C119.296 13.8047 119.144 14.161 118.842 14.4561Z" fill="#663CDC"/>
<path fill-rule="evenodd" clip-rule="evenodd" d="M47.9667 14.1032C47.7882 13.8684 47.6992 13.6025 47.6992 13.3065C47.6992 13.0717 47.7432 12.87 47.8327 12.7018C47.9217 12.5331 48.0382 12.3921 48.1797 12.2803C48.3217 12.168 48.4712 12.0863 48.6287 12.0353C48.7862 11.9838 48.9387 11.9585 49.0857 11.9585C49.2962 11.9585 49.4957 12.0042 49.6852 12.0961C49.8732 12.1884 50.0377 12.3211 50.1737 12.4947L52.3797 15.3141L54.5707 12.4947C54.7067 12.3211 54.8727 12.1884 55.0677 12.0961C55.2622 12.0042 55.4637 11.9585 55.6742 11.9585C55.8002 11.9585 55.9417 11.9813 56.0997 12.027C56.2572 12.0732 56.4072 12.1471 56.5492 12.2497C56.6912 12.3513 56.8092 12.4893 56.9037 12.6629C56.9982 12.8374 57.0452 13.0518 57.0452 13.3065C57.0452 13.4499 57.0242 13.5904 56.9827 13.7279C56.9402 13.866 56.8727 13.9914 56.7777 14.1032L54.0982 17.5361L57.0452 21.3054C57.1402 21.4182 57.2077 21.5436 57.2502 21.6807C57.2927 21.8188 57.3132 21.9593 57.3132 22.1022C57.3132 22.3277 57.2707 22.5236 57.1872 22.6918C57.1032 22.861 56.9952 23.0015 56.8642 23.1138C56.7327 23.227 56.5857 23.3097 56.4227 23.3666C56.2597 23.4229 56.0997 23.4506 55.9417 23.4506C55.7312 23.4506 55.5297 23.4069 55.3352 23.3204C55.1407 23.2338 54.9757 23.1041 54.8392 22.9295L52.3797 19.7581L49.9052 22.9295C49.7687 23.1041 49.6032 23.2338 49.4092 23.3204C49.2147 23.4069 49.0127 23.4506 48.8027 23.4506C48.5707 23.4506 48.3692 23.4069 48.1952 23.3204C48.0222 23.2338 47.8802 23.1264 47.7697 22.9991C47.6592 22.8712 47.5757 22.7283 47.5172 22.5698C47.4597 22.4118 47.4307 22.2558 47.4307 22.1022C47.4307 21.8061 47.5202 21.5412 47.6992 21.3054L50.6462 17.5361L47.9667 14.1032Z" fill="#663CDC"/>
<path fill-rule="evenodd" clip-rule="evenodd" d="M59.2894 18.5476C59.0479 18.5476 58.8434 18.466 58.6749 18.3022C58.5069 18.1388 58.4229 17.94 58.4229 17.7042C58.4229 17.4699 58.5069 17.2706 58.6749 17.1073C58.8434 16.944 59.0479 16.8618 59.2894 16.8618H63.0714C63.3144 16.8618 63.5189 16.944 63.6874 17.1073C63.8554 17.2706 63.9394 17.4699 63.9394 17.7042C63.9394 17.94 63.8554 18.1388 63.6874 18.3022C63.5189 18.466 63.3144 18.5476 63.0714 18.5476H59.2894Z" fill="#663CDC"/>
<path fill-rule="evenodd" clip-rule="evenodd" d="M69.3928 14.4403V17.7051H71.0323C71.2633 17.7051 71.4783 17.6613 71.6788 17.5748C71.8783 17.4878 72.0543 17.3701 72.2063 17.2219C72.3588 17.0741 72.4798 16.9025 72.5688 16.709C72.6583 16.5151 72.7033 16.3051 72.7033 16.0805C72.7033 15.8559 72.6583 15.6435 72.5688 15.4437C72.4798 15.2448 72.3588 15.0713 72.2063 14.9235C72.0543 14.7758 71.8783 14.6576 71.6788 14.5716C71.4783 14.4841 71.2633 14.4403 71.0323 14.4403H69.3928ZM74.8943 21.1671C75.0513 21.2901 75.1693 21.4384 75.2483 21.6124C75.3273 21.786 75.3668 21.9648 75.3668 22.1486C75.3668 22.2915 75.3383 22.4369 75.2798 22.5851C75.2223 22.7339 75.1383 22.8744 75.0283 23.0066C74.9178 23.1393 74.7783 23.2462 74.6103 23.3279C74.4423 23.4105 74.2478 23.4509 74.0273 23.4509C73.8698 23.4509 73.7123 23.428 73.5538 23.3823C73.3973 23.3362 73.2543 23.2569 73.1288 23.1446L69.5508 20.1565H69.3928V22.1029C69.3928 22.4806 69.2588 22.7995 68.9913 23.0596C68.7233 23.3211 68.3953 23.4509 68.0063 23.4509C67.6283 23.4509 67.3048 23.3211 67.0373 23.0596C66.7688 22.7995 66.6348 22.4806 66.6348 22.1029V13.2921C66.6348 12.9237 66.7688 12.6096 67.0373 12.3491C67.3048 12.088 67.6283 11.9583 68.0063 11.9583H71.0638C71.6423 11.9583 72.1883 12.0652 72.7033 12.2805C73.2173 12.4944 73.6698 12.791 74.0583 13.1692C74.4473 13.5469 74.7523 13.9863 74.9733 14.4865C75.1938 14.9872 75.3028 15.519 75.3028 16.0805C75.3028 16.8772 75.0778 17.5592 74.6258 18.1255C74.1743 18.6928 73.5173 19.125 72.6558 19.4205L74.8943 21.1671Z" fill="#663CDC"/>
<path fill-rule="evenodd" clip-rule="evenodd" d="M80.5126 18.9688C80.6866 19.3625 80.9246 19.7072 81.2301 20.0037C81.5351 20.2998 81.8886 20.5321 82.2941 20.7008C82.6981 20.8695 83.1316 20.9536 83.5936 20.9536C84.0566 20.9536 84.4926 20.8695 84.9021 20.7008C85.3121 20.5321 85.6691 20.2998 85.9746 20.0037C86.2781 19.7072 86.5176 19.3625 86.6911 18.9688C86.8651 18.576 86.9516 18.1546 86.9516 17.7044C86.9516 17.2557 86.8651 16.8333 86.6911 16.4405C86.5176 16.0477 86.2781 15.7026 85.9746 15.4066C85.6691 15.11 85.3121 14.8748 84.9021 14.7012C84.4926 14.5272 84.0566 14.4412 83.5936 14.4412C83.1316 14.4412 82.6981 14.5272 82.2941 14.7012C81.8886 14.8748 81.5346 15.11 81.2301 15.4066C80.9246 15.7026 80.6866 16.0477 80.5126 16.4405C80.3401 16.8333 80.2526 17.2557 80.2526 17.7044C80.2526 18.1546 80.3401 18.576 80.5126 18.9688ZM81.2216 23.1834C80.4816 22.8713 79.8351 22.4469 79.2831 21.9107C78.7311 21.3741 78.2956 20.7441 77.9756 20.0188C77.6546 19.2935 77.4951 18.5221 77.4951 17.7044C77.4951 16.8873 77.6546 16.1163 77.9756 15.391C78.2956 14.6652 78.7311 14.0348 79.2831 13.4981C79.8351 12.9619 80.4816 12.5385 81.2216 12.2269C81.9626 11.9148 82.7536 11.7588 83.5936 11.7588C84.4346 11.7588 85.2281 11.9148 85.9746 12.2269C86.7206 12.5385 87.3696 12.9619 87.9201 13.4981C88.4721 14.0348 88.9081 14.6652 89.2291 15.391C89.5496 16.1163 89.7101 16.8873 89.7101 17.7044C89.7101 18.5221 89.5496 19.2935 89.2291 20.0188C88.9081 20.7441 88.4721 21.3741 87.9201 21.9107C87.3696 22.4469 86.7206 22.8713 85.9746 23.1834C85.2281 23.495 84.4346 23.65 83.5936 23.65C82.7536 23.65 81.9626 23.495 81.2216 23.1834Z" fill="#663CDC"/>
<path fill-rule="evenodd" clip-rule="evenodd" d="M95.344 19.0684H98.212L96.7935 15.7128L95.344 19.0684ZM99.1745 21.3668H94.335L93.768 22.6696C93.663 22.9141 93.4945 23.1066 93.2635 23.2441C93.0325 23.3822 92.7855 23.4507 92.522 23.4507C92.3965 23.4507 92.2545 23.4284 92.0975 23.3822C91.9395 23.336 91.792 23.2592 91.6555 23.1518C91.5195 23.0453 91.404 22.9068 91.309 22.7391C91.2145 22.5699 91.167 22.3623 91.167 22.1178C91.167 21.9443 91.209 21.7659 91.293 21.5816L95.486 12.5862C95.749 12.0354 96.185 11.7593 96.7935 11.7593C97.4245 11.7593 97.8605 12.0354 98.1025 12.5862L102.216 21.5816C102.289 21.7547 102.327 21.9341 102.327 22.1173C102.327 22.496 102.194 22.8125 101.932 23.0682C101.669 23.3239 101.349 23.4507 100.971 23.4507C100.708 23.4507 100.461 23.3822 100.229 23.2441C99.999 23.1066 99.831 22.9141 99.726 22.6696L99.1745 21.3668Z" fill="#663CDC"/>
<path fill-rule="evenodd" clip-rule="evenodd" d="M107.343 14.4403V20.9528H109.313C109.754 20.9528 110.166 20.8667 110.55 20.6927C110.934 20.5192 111.267 20.2839 111.551 19.9878C111.834 19.6923 112.058 19.3496 112.221 18.9612C112.384 18.5733 112.465 18.1596 112.465 17.7201C112.465 17.2807 112.386 16.8646 112.228 16.4713C112.071 16.078 111.851 15.7305 111.567 15.4291C111.283 15.1277 110.95 14.8871 110.566 14.7087C110.182 14.5303 109.765 14.4403 109.313 14.4403H107.343ZM104.986 23.0596C104.719 22.7995 104.585 22.4855 104.585 22.118V13.2921C104.585 12.9237 104.719 12.6096 104.986 12.3491C105.255 12.088 105.577 11.9583 105.956 11.9583H109.659C110.448 11.9583 111.183 12.1138 111.866 12.4254C112.549 12.7375 113.138 13.156 113.632 13.6815C114.125 14.2085 114.514 14.8185 114.798 15.5132C115.082 16.2083 115.223 16.9385 115.223 17.7051C115.223 18.4707 115.082 19.2008 114.798 19.896C114.514 20.5901 114.125 21.2012 113.632 21.7267C113.138 22.2536 112.549 22.6721 111.866 22.9837C111.183 23.2948 110.448 23.4509 109.659 23.4509H105.956C105.577 23.4509 105.255 23.3211 104.986 23.0596Z" fill="#663CDC"/>
<path fill-rule="evenodd" clip-rule="evenodd" d="M118.012 12.7974C117.937 12.7565 117.816 12.7361 117.65 12.7361H117.394V13.334H117.665C117.792 13.334 117.887 13.3219 117.95 13.2976C118.067 13.2528 118.126 13.1663 118.126 13.0394C118.126 12.9189 118.088 12.8387 118.012 12.7974ZM117.689 12.5373C117.9 12.5373 118.054 12.5572 118.153 12.5966C118.329 12.6676 118.416 12.8076 118.416 13.0151C118.416 13.1629 118.361 13.2718 118.251 13.3413C118.192 13.3778 118.11 13.405 118.005 13.4215C118.138 13.4419 118.235 13.4959 118.296 13.5829C118.358 13.6704 118.389 13.7555 118.389 13.8391V13.9597C118.389 13.9981 118.39 14.0389 118.393 14.0826C118.396 14.1259 118.401 14.1546 118.408 14.1682L118.418 14.1886H118.138C118.137 14.1838 118.135 14.1779 118.134 14.1726C118.132 14.1667 118.131 14.1609 118.129 14.1541L118.123 14.1011V13.9703C118.123 13.7798 118.07 13.6539 117.963 13.5926C117.9 13.5567 117.789 13.5392 117.63 13.5392H117.394V14.1886H117.095V12.5373H117.689ZM116.779 12.4532C116.52 12.7065 116.391 13.0113 116.391 13.3695C116.391 13.7297 116.52 14.0374 116.776 14.2912C117.035 14.5454 117.349 14.6723 117.719 14.6723C118.088 14.6723 118.402 14.5454 118.661 14.2912C118.919 14.0374 119.048 13.7297 119.048 13.3695C119.048 13.0113 118.919 12.7065 118.661 12.4532C118.401 12.1994 118.087 12.0721 117.719 12.0721C117.352 12.0721 117.039 12.1994 116.779 12.4532ZM118.814 14.4346C118.513 14.7301 118.147 14.8769 117.719 14.8769C117.29 14.8769 116.925 14.7301 116.625 14.4346C116.326 14.141 116.176 13.7851 116.176 13.3671C116.176 12.9529 116.327 12.5995 116.629 12.3054C116.93 12.0138 117.293 11.8674 117.719 11.8674C118.147 11.8674 118.513 12.0138 118.814 12.3054C119.117 12.5981 119.268 12.9519 119.268 13.3671C119.268 13.7837 119.117 14.14 118.814 14.4346Z" fill="#663CDC"/>
<path fill-rule="evenodd" clip-rule="evenodd" d="M129.449 12.5219C129.666 12.5229 129.835 12.5909 129.981 12.7343C130.128 12.8792 130.196 13.0435 130.195 13.253C130.195 13.3089 130.191 13.3633 130.184 13.411C130.183 13.4149 130.179 13.4377 130.149 13.496L126.053 22.528C125.98 22.6865 125.883 22.7968 125.745 22.8741C125.599 22.9577 125.447 22.9976 125.273 22.9995C125.2 22.999 125.104 22.983 124.998 22.9514C124.899 22.9222 124.804 22.8731 124.712 22.806C124.633 22.7492 124.565 22.669 124.508 22.5664C124.457 22.474 124.432 22.3476 124.433 22.1906C124.433 22.0613 124.454 21.9553 124.501 21.8591L128.054 13.9724L123.513 13.9515C123.296 13.951 123.126 13.883 122.98 13.7386C122.834 13.5962 122.766 13.4309 122.767 13.2199C122.768 13.0099 122.837 12.8456 122.986 12.7027C123.133 12.5613 123.301 12.4956 123.515 12.4956L129.449 12.5219ZM130.737 12.0071C130.388 11.6644 129.956 11.4899 129.454 11.4879L123.515 11.4617C123.016 11.4617 122.585 11.6318 122.236 11.9687C121.885 12.3075 121.705 12.7275 121.703 13.2156C121.701 13.7056 121.876 14.127 122.225 14.4673C122.572 14.809 123.004 14.9835 123.508 14.9869L126.43 14.9991L123.533 21.4299C123.425 21.651 123.37 21.9058 123.368 22.1867C123.367 22.5192 123.435 22.8119 123.571 23.0574C123.702 23.2926 123.871 23.4876 124.075 23.6349C124.265 23.7734 124.471 23.876 124.688 23.9401C124.894 24.0019 125.089 24.034 125.268 24.0349H125.277C125.632 24.0349 125.971 23.9445 126.282 23.7676C126.611 23.5804 126.861 23.3053 127.025 22.9475L131.109 13.9418C131.175 13.813 131.217 13.6851 131.236 13.5617C131.251 13.4664 131.258 13.3648 131.259 13.2583C131.261 12.7693 131.086 12.3488 130.737 12.0071Z" fill="#663CDC"/>
<mask id="mask0" mask-type="alpha" maskUnits="userSpaceOnUse" x="0" y="0" width="36" height="35">
<path fill-rule="evenodd" clip-rule="evenodd" d="M25.522 1.16513L17.638 8.8311L9.75401 1.16513C8.80701 0.244923 7.27151 0.244923 6.32451 1.16513C5.37751 2.0868 5.37751 3.57916 6.32451 4.49985L15.92 13.8293L15.923 13.8317C16.396 14.2926 17.0175 14.523 17.6375 14.523C18.258 14.523 18.879 14.2926 19.3515 13.8317L28.952 4.49985C29.8985 3.57916 29.8985 2.0868 28.952 1.16513C28.478 0.704784 27.857 0.474854 27.2365 0.474854C26.616 0.474854 25.995 0.704784 25.522 1.16513ZM31.0375 6.52742L21.4415 15.8578C21.4405 15.8583 21.439 15.8593 21.438 15.8603C20.4915 16.781 20.4915 18.2733 21.438 19.1935L31.0375 28.5269C31.511 28.9867 32.132 29.2167 32.752 29.2167C33.3725 29.2167 33.9935 28.9867 34.4665 28.5269C35.4135 27.6052 35.4135 26.1128 34.4665 25.1921L26.5825 17.5271L34.4665 9.86215C35.4135 8.94194 35.4135 7.44909 34.4665 6.52742C33.993 6.06756 33.3725 5.83715 32.752 5.83715C32.1315 5.83715 31.511 6.06756 31.0375 6.52742ZM0.808508 6.52791C-0.137992 7.44909 -0.137992 8.94194 0.808508 9.86214L8.69251 17.5271L0.808508 25.1926C-0.137992 26.1128 -0.137992 27.6062 0.808508 28.5269C1.28201 28.9867 1.90251 29.2167 2.52301 29.2167C3.14351 29.2167 3.76451 28.9867 4.23801 28.5269L13.8345 19.1974C13.8355 19.1965 13.836 19.1955 13.837 19.1945C14.7835 18.2738 14.7835 16.7819 13.837 15.8603L4.23801 6.52791C3.76451 6.06805 3.14401 5.83763 2.52351 5.83763C1.90301 5.83763 1.28251 6.06805 0.808508 6.52791ZM15.924 21.223L6.32451 30.5549C5.37751 31.4756 5.37751 32.968 6.32451 33.8887C6.79801 34.349 7.41901 34.5794 8.03851 34.5794C8.66001 34.5794 9.28001 34.349 9.75351 33.8887L17.638 26.2232L25.522 33.8887C25.9955 34.349 26.616 34.5794 27.2365 34.5794C27.8575 34.5794 28.4775 34.349 28.9515 33.8887C29.898 32.968 29.898 31.4756 28.9515 30.5549L19.355 21.225C19.354 21.2245 19.3535 21.2235 19.3525 21.223C18.879 20.7622 18.2585 20.5318 17.638 20.5318C17.0175 20.5318 16.397 20.7622 15.924 21.223Z" fill="white"/>
</mask>
<g mask="url(#mask0)">
<path fill-rule="evenodd" clip-rule="evenodd" d="M25.522 1.16513L17.638 8.8311L9.75401 1.16513C8.80701 0.244923 7.27151 0.244923 6.32451 1.16513C5.37751 2.0868 5.37751 3.57916 6.32451 4.49985L15.92 13.8293L15.923 13.8317C16.396 14.2926 17.0175 14.523 17.6375 14.523C18.258 14.523 18.879 14.2926 19.3515 13.8317L28.952 4.49985C29.8985 3.57916 29.8985 2.0868 28.952 1.16513C28.478 0.704784 27.857 0.474854 27.2365 0.474854C26.616 0.474854 25.995 0.704784 25.522 1.16513ZM31.0375 6.52742L21.4415 15.8578C21.4405 15.8583 21.439 15.8593 21.438 15.8603C20.4915 16.781 20.4915 18.2733 21.438 19.1935L31.0375 28.5269C31.511 28.9867 32.132 29.2167 32.752 29.2167C33.3725 29.2167 33.9935 28.9867 34.4665 28.5269C35.4135 27.6052 35.4135 26.1128 34.4665 25.1921L26.5825 17.5271L34.4665 9.86215C35.4135 8.94194 35.4135 7.44909 34.4665 6.52742C33.993 6.06756 33.3725 5.83715 32.752 5.83715C32.1315 5.83715 31.511 6.06756 31.0375 6.52742ZM0.808508 6.52791C-0.137992 7.44909 -0.137992 8.94194 0.808508 9.86214L8.69251 17.5271L0.808508 25.1926C-0.137992 26.1128 -0.137992 27.6062 0.808508 28.5269C1.28201 28.9867 1.90251 29.2167 2.52301 29.2167C3.14351 29.2167 3.76451 28.9867 4.23801 28.5269L13.8345 19.1974C13.8355 19.1965 13.836 19.1955 13.837 19.1945C14.7835 18.2738 14.7835 16.7819 13.837 15.8603L4.23801 6.52791C3.76451 6.06805 3.14401 5.83763 2.52351 5.83763C1.90301 5.83763 1.28251 6.06805 0.808508 6.52791ZM15.924 21.223L6.32451 30.5549C5.37751 31.4756 5.37751 32.968 6.32451 33.8887C6.79801 34.349 7.41901 34.5794 8.03851 34.5794C8.66001 34.5794 9.28001 34.349 9.75351 33.8887L17.638 26.2232L25.522 33.8887C25.9955 34.349 26.616 34.5794 27.2365 34.5794C27.8575 34.5794 28.4775 34.349 28.9515 33.8887C29.898 32.968 29.898 31.4756 28.9515 30.5549L19.355 21.225C19.354 21.2245 19.3535 21.2235 19.3525 21.223C18.879 20.7622 18.2585 20.5318 17.638 20.5318C17.0175 20.5318 16.397 20.7622 15.924 21.223Z" fill="url(#paint0_linear)"/>
</g>
<defs>
<linearGradient id="paint0_linear" x1="-7.26882" y1="29.8656" x2="30.1216" y2="42.361" gradientUnits="userSpaceOnUse">
<stop stop-color="#E29AE6"/>
<stop offset="1" stop-color="#663BDB"/>
</linearGradient>
</defs>
</svg>
