<svg id="Layer_1" data-name="Layer 1" xmlns="http://www.w3.org/2000/svg" viewBox="0 0 144 195"><defs><style>.cls-1{fill:#fff;}</style></defs><title>xroad7_large</title><path class="cls-1" d="M26.82,189.64a13,13,0,0,1-4.45,3.87A13.68,13.68,0,0,1,15.78,195a15.54,15.54,0,0,1-6.13-1.16,14.28,14.28,0,0,1-4.83-3.21,14.47,14.47,0,0,1-3.16-4.92A17.11,17.11,0,0,1,.5,179.42a16.31,16.31,0,0,1,1.18-6.32,14,14,0,0,1,3.25-4.89,14.65,14.65,0,0,1,4.89-3.16,16,16,0,0,1,6.12-1.12,15.11,15.11,0,0,1,3,.3,13.56,13.56,0,0,1,2.91.88,11.36,11.36,0,0,1,2.53,1.45,10.55,10.55,0,0,1,2,2L23.17,171a7.72,7.72,0,0,0-3-2.47,9.21,9.21,0,0,0-4.21-1,11,11,0,0,0-4.56.93,10.75,10.75,0,0,0-3.46,2.56,11.62,11.62,0,0,0-2.2,3.79A12.9,12.9,0,0,0,5,179.42a14.52,14.52,0,0,0,.77,4.67,11.37,11.37,0,0,0,2.17,3.79,10,10,0,0,0,3.44,2.53,10.67,10.67,0,0,0,4.53.91,10.21,10.21,0,0,0,4.48-1,8.71,8.71,0,0,0,3.32-2.91Z"/><path class="cls-1" d="M43.42,181.43a3.93,3.93,0,0,0-1.32-3.27,5.3,5.3,0,0,0-3.46-1.07,7.75,7.75,0,0,0-3.08.63,8,8,0,0,0-2.45,1.65l-2-2.5a9.91,9.91,0,0,1,3.49-2.17,12.74,12.74,0,0,1,4.45-.8,9.55,9.55,0,0,1,3.63.6,6.54,6.54,0,0,1,4,4.12,9.36,9.36,0,0,1,.49,3v8.66c0,.66,0,1.37.06,2.11a13.91,13.91,0,0,0,.22,1.82H43.91a12.29,12.29,0,0,1-.33-2.83h-.11a7.5,7.5,0,0,1-2.69,2.47,8,8,0,0,1-3.82.88,10.64,10.64,0,0,1-2.39-.3,6.8,6.8,0,0,1-2.28-1,5.45,5.45,0,0,1-2.36-4.75,5.06,5.06,0,0,1,1.18-3.57,7.5,7.5,0,0,1,3.1-2,17,17,0,0,1,4.34-.91c1.6-.13,3.24-.22,4.87-.22v-.57Zm-.94,3.38c-1,0-1.95.05-3,.13a16.43,16.43,0,0,0-2.77.5,5.25,5.25,0,0,0-2.06,1.12,2.66,2.66,0,0,0-.83,2,2.7,2.7,0,0,0,1.3,2.42,3.58,3.58,0,0,0,1.26.52,6.25,6.25,0,0,0,1.43.14A5.25,5.25,0,0,0,42,190a6.09,6.09,0,0,0,1.45-4.15v-1Z"/><path class="cls-1" d="M58.66,175a6.75,6.75,0,0,1,3.85-1.1,6.87,6.87,0,0,1,3.54.91,6.09,6.09,0,0,1,2.48,3.05,6.83,6.83,0,0,1,2.74-2.94,7.36,7.36,0,0,1,3.85-1,7.68,7.68,0,0,1,3.24.63,6.35,6.35,0,0,1,2.25,1.73A7.33,7.33,0,0,1,82,178.82,10.67,10.67,0,0,1,82.4,182v12.28H78.55v-11a12.79,12.79,0,0,0-.19-2.31,6.06,6.06,0,0,0-.69-1.92,3.94,3.94,0,0,0-1.31-1.35,4,4,0,0,0-2.09-.49,4.09,4.09,0,0,0-2.26.58,4.51,4.51,0,0,0-1.53,1.45,6.07,6.07,0,0,0-.86,2,9.47,9.47,0,0,0-.27,2.31v10.69H65.5V182.44a9,9,0,0,0-.22-2.14,4.35,4.35,0,0,0-.68-1.65,3.55,3.55,0,0,0-1.27-1.1,4.7,4.7,0,0,0-1.92-.41,4.38,4.38,0,0,0-3.54,1.79,7.42,7.42,0,0,0-1.4,4.75V194.2H52.62V178.68c0-.52,0-1.21,0-2.06s-.08-1.57-.11-2.23h3.66c0,.5.08,1.08.11,1.71s0,1.15,0,1.56h.11A6.46,6.46,0,0,1,58.66,175Z"/><path class="cls-1" d="M88.44,164.67H98a20.32,20.32,0,0,1,5.8.82,15.74,15.74,0,0,1,5.25,2.64,13.37,13.37,0,0,1,3.79,4.62,14.48,14.48,0,0,1,1.45,6.73,13.53,13.53,0,0,1-5.24,11.15,16.32,16.32,0,0,1-5.25,2.72,20,20,0,0,1-5.8.91H88.44Zm3.82,25.93h4.92a16.41,16.41,0,0,0,5.06-.74,11.94,11.94,0,0,0,4-2.17,9.82,9.82,0,0,0,2.63-3.52,11.1,11.1,0,0,0,.94-4.72,11.52,11.52,0,0,0-.94-4.84,9.41,9.41,0,0,0-2.63-3.49,12.62,12.62,0,0,0-4-2.14,17.7,17.7,0,0,0-5.06-.74H92.26Z"/><path class="cls-1" d="M129.6,175.68l7.42-11h5.11l-10,14,11.35,15.58H138l-8.57-12.42L121,194.26h-5.39L126.8,178.6l-10.06-13.9h5.36Z"/><path class="cls-1" d="M141.2,66.83H84.05c-4.56,0-7.87-3.51-7.87-8.36V2.72c0-2.1.58-2.68,2.71-2.68h2.69c2.63,0,5.35,0,8,0h0a2.2,2.2,0,0,1,2.5,2.51c0,12.41,0,25,0,37.42.26-.27.52-.54.79-.8l38.19-38A3.37,3.37,0,0,1,133.82,0c2.45,0,4.87,0,7.36,0a2,2,0,0,1,2.32,2.23c0,2.56,0,5.12,0,7.63a3.3,3.3,0,0,1-1.08,2.39l-39.11,38.8q18.76,0,37.54,0a2.28,2.28,0,0,1,2.61,2.61c-.07,3.65,0,7.35,0,10.93A2,2,0,0,1,141.2,66.83ZM78.73,2.59V58.47c0,3.42,2.19,5.81,5.32,5.81H140.9c0-3.5-.06-7.11,0-10.68v0h-.06q-19.57.06-39.19,0h-2l-.33-.79a.55.55,0,0,0-.08-.15l-.75-1.09,1.12-.71a10.48,10.48,0,0,0,1.08-.81l39.89-39.58c.34-.37.36-.45.36-.6,0-2.4,0-4.87,0-7.32-2.41,0-4.77,0-7.19,0a.94.94,0,0,0-.81.33L94.67,41c-.54.52-1,1.06-1.52,1.6s-.7.77-1.06,1.15l-.65.67-1.9-.94V41.38c0-12.88,0-25.94,0-38.82-2.65,0-5.35,0-8,0H78.73Z"/><path class="cls-1" d="M65.45,142.12c-3.72,0-7.5,0-11.25,0a2.09,2.09,0,0,1-2.37-2.36q0-18.73,0-37.48l-30.6,30.4c-2.83,2.79-5.65,5.58-8.48,8.4a3.09,3.09,0,0,1-2.37,1c-2.53,0-5.09,0-7.6,0a2.29,2.29,0,0,1-1.73-.59,2.16,2.16,0,0,1-.51-1.62c0-2.57,0-5.21,0-7.82a3,3,0,0,1,1-2.2q19.53-19.34,39.12-38.78c-12.55,0-25.13,0-37.67,0A2.18,2.18,0,0,1,.53,88.64c.07-3.67,0-7.38,0-11a2,2,0,0,1,2.25-2.34q28.53.06,57.05,0a7.82,7.82,0,0,1,7.91,7.73v.26q0,28.23,0,56.47A2,2,0,0,1,65.45,142.12ZM53.08,98.24h.15l1.19.09v2.45q0,19.38,0,38.79c3.61,0,7.26,0,10.85,0q0-28.09,0-56.23v-.21a5.23,5.23,0,0,0-1.59-3.71,5.12,5.12,0,0,0-3.75-1.5q-28.39,0-56.77,0c0,3.53.07,7.12,0,10.67,13,0,26.08,0,39.1,0h1.69l.37.37a2.85,2.85,0,0,1,.27.32l1.13,1.13-1.3.93a7.4,7.4,0,0,0-.81.57q-20.1,19.95-40.23,39.88a.52.52,0,0,0-.19.34c0,2.46,0,5,0,7.47,2.41,0,4.88,0,7.33,0a.52.52,0,0,0,.46-.19c2.89-2.89,5.72-5.69,8.54-8.48l.15-.15L51.29,99.24A2.33,2.33,0,0,1,53.08,98.24Z"/><path class="cls-1" d="M17.09,66.8H2.79C1.3,66.8.53,66,.53,64.43c0-3.67.07-7.38,0-11a2.39,2.39,0,0,1,.57-1.8A2.47,2.47,0,0,1,3,51c12.52,0,25.08,0,37.6,0l-.75-.75-2.67-2.65L1.47,12.22A3.11,3.11,0,0,1,.5,10c0-2.6,0-5.21,0-7.78A2.21,2.21,0,0,1,1.09.54,2.22,2.22,0,0,1,2.79,0c2.5,0,5.06,0,7.57,0a3.08,3.08,0,0,1,2.38,1.08L51.79,39.91q0-18.67,0-37.4A2.56,2.56,0,0,1,52.41.58,2.47,2.47,0,0,1,54.35,0c3.64.07,7.37,0,11,0a2,2,0,0,1,2.34,2.26q-.06,28.28,0,56.49a7.81,7.81,0,0,1-8,8Q38.42,66.81,17.09,66.8Zm-14-2.56q28.37,0,56.57,0a5.27,5.27,0,0,0,5.43-5.46q0-28.08,0-56.19c-3.53,0-7.19.07-10.81,0q0,19.49,0,38.93V43.4l-1.84,1-.69-.72L51.15,43c-.32-.36-.64-.71-1-1.06l-39.29-39a.63.63,0,0,0-.49-.26c-2.41,0-4.88,0-7.33,0,0,2.45,0,4.94,0,7.4a.54.54,0,0,0,.18.37L39,45.81l2.67,2.65,3,3,2.25,2.25-4.73-.11c-13,0-26,0-39,0C3.16,57.13,3.12,60.74,3.09,64.24Z"/><path class="cls-1" d="M133.51,142.09a3.19,3.19,0,0,1-2.34-1.05q-9.36-9.36-18.9-18.79l-20.17-20v37.24a2.62,2.62,0,0,1-.66,2,2.58,2.58,0,0,1-2,.59c-3.58-.07-7.24,0-10.79,0-1.62,0-2.44-.78-2.44-2.33q0-28.32,0-56.59a7.67,7.67,0,0,1,7.45-7.8H84q28.62-.06,57.26,0a2,2,0,0,1,2.26,2.26c0,3.62-.07,7.36,0,11a2.53,2.53,0,0,1-.58,1.85,2.57,2.57,0,0,1-1.93.64q-18.8,0-37.61,0l38.86,38.58a3.84,3.84,0,0,1,1.25,3.08c-.06,2.35,0,4.66,0,7.11a2,2,0,0,1-2.24,2.24c-2.5,0-5.06,0-7.57,0ZM90.69,97.48l1.11.91a7.13,7.13,0,0,1,.85.8l21.42,21.24q9.53,9.42,19,18.85a.74.74,0,0,0,.57.26c2.45,0,4.91,0,7.35,0,0-2.27-.06-4.58,0-6.9a1.34,1.34,0,0,0-.45-1.11L100.59,91.9l-.21-.19a3.16,3.16,0,0,1-1.1-1.55l-.48-1.64h3q19.56,0,39.14,0c-.07-3.58,0-7.18,0-10.68q-28.48,0-57,0h-.13a5.12,5.12,0,0,0-3.59,1.57,5.06,5.06,0,0,0-1.42,3.65q0,28.2,0,56.39c3.51,0,7.15-.07,10.74,0V100.71a1.34,1.34,0,0,0,0-.2,2.76,2.76,0,0,1,.39-1.82Z"/></svg>